<?xml version="1.0" standalone="no"?>
<!DOCTYPE svg PUBLIC "-//W3C//DTD SVG 20010904//EN"
 "http://www.w3.org/TR/2001/REC-SVG-20010904/DTD/svg10.dtd">
<svg version="1.0" xmlns="http://www.w3.org/2000/svg"
 width="700.000000pt" height="700.000000pt" viewBox="0 0 700.000000 700.000000"
 preserveAspectRatio="xMidYMid meet">
<metadata>
Created by potrace 1.11, written by Peter Selinger 2001-2013
</metadata>
<g transform="translate(0.000000,700.000000) scale(0.100000,-0.100000)"
fill="#000000" stroke="none">
<path d="M675 6704 c-64 -14 -114 -30 -145 -47 -64 -35 -150 -108 -150 -127 0
-5 -4 -10 -9 -10 -5 0 -14 -13 -20 -30 -5 -16 -14 -30 -19 -30 -6 0 -10 -6 -9
-12 1 -31 -4 -49 -11 -44 -4 2 -8 -3 -8 -12 -1 -9 -4 -39 -7 -67 -8 -58 -9
-5605 -2 -5650 3 -16 8 -46 11 -65 3 -19 5 -36 5 -38 -1 -1 5 -10 14 -19 9 -8
14 -22 11 -30 -3 -8 -1 -11 4 -8 6 3 10 0 10 -8 0 -8 7 -20 15 -27 8 -7 12
-16 9 -21 -3 -5 -2 -8 3 -7 4 1 26 -15 48 -36 22 -21 59 -49 83 -63 23 -14 42
-29 42 -34 0 -4 6 -6 14 -3 8 3 25 0 38 -7 13 -7 36 -13 53 -14 16 -2 1299 -3
2850 -4 1934 -1 2832 2 2858 10 20 5 43 7 50 3 6 -4 9 -4 5 1 -4 4 15 18 43
31 28 13 69 39 91 59 23 19 45 32 50 29 5 -3 7 -1 6 4 -2 5 15 38 36 72 22 34
41 70 42 79 2 9 7 34 13 56 7 27 11 931 11 2860 0 2423 -2 2828 -15 2874 -8
30 -12 58 -10 62 3 4 -2 10 -11 13 -8 3 -13 10 -9 15 3 5 1 12 -5 16 -6 4 -7
11 -4 17 4 7 2 8 -4 4 -10 -6 -17 7 -10 17 4 5 -90 91 -130 119 -23 16 -68 39
-100 51 l-57 22 -2830 1 c-1557 1 -2839 0 -2850 -2z"/>
<path d="M6476 322 c-3 -5 1 -9 9 -9 8 0 12 4 9 9 -3 4 -7 8 -9 8 -2 0 -6 -4
-9 -8z"/>
<path d="M1353 115 c0 -8 4 -12 9 -9 5 3 6 10 3 15 -9 13 -12 11 -12 -6z"/>
<path d="M3273 115 c0 -8 4 -12 9 -9 5 3 6 10 3 15 -9 13 -12 11 -12 -6z"/>
</g>
</svg>
