<svg width="24" height="24" xmlns="http://www.w3.org/2000/svg">
 <!-- Created with Method Draw - http://github.com/duopixel/Method-Draw/ -->

 <g>
  <title>background</title>
  <rect fill="none" id="canvas_background" height="26" width="26" y="-1" x="-1"/>
  <g display="none" overflow="visible" y="0" x="0" height="100%" width="100%" id="canvasGrid">
   <rect fill="url(#gridpattern)" stroke-width="0" y="0" x="0" height="100%" width="100%"/>
  </g>
 </g>
 <g>
  <title>Layer 1</title>
  <g stroke-opacity="0" stroke="null" id="svg_25">
   <g stroke="null" transform="matrix(0.054330701874772534,0,0,0.05639583923425698,3.5392371901757533,2.2293923709477137) " id="svg_5">
    <path stroke="#000000" id="svg_6" fill="#e64a19" d="m18.803897,37.505385l-33.133,19.084c-6.479,3.732 -8.715,12.041 -4.982,18.523l19.084,33.131c1.852,3.213 5.215,5.012 8.676,5.012c1.691,0 3.408,-0.432 4.98,-1.338c4.787,-2.756 6.432,-8.871 3.674,-13.656l-15.871,-27.553l27.555,-15.873c4.785,-2.758 6.43,-8.871 3.674,-13.656c-2.756,-4.786 -8.869,-6.434 -13.657,-3.674z"/>
    <path stroke="#000000" id="svg_7" fill="#e64a19" d="m374.011897,138.806385l-73.24,-132.881c-6.426,-11.654 -21.135,-15.912 -32.789,-9.486l-108.645,59.881l-48.354,-83.941c-6.643,-11.531 -21.432,-15.51 -32.963,-8.867l-131.472,75.733c-5.586,3.219 -9.586,8.42 -11.26,14.645c-1.676,6.227 -0.826,12.732 2.393,18.318l75.732,131.473c4.463,7.748 12.598,12.084 20.955,12.084c4.084,0 8.223,-1.035 12.008,-3.217l10.51,-6.053l-38.588,57.092c-3.609,5.34 -4.924,11.767 -3.699,18.098c1.225,6.332 4.84,11.805 10.182,15.414l125.707,84.963c4.006,2.709 8.676,4.143 13.502,4.143c8.035,0 15.516,-3.971 20.012,-10.623l84.963,-125.707c5.426,-8.025 5.355,-18.174 0.666,-25.977l94.893,-52.303c11.653,-6.424 15.91,-21.133 9.487,-32.789zm-337.616,56.412c-1.98,1.139 -4.512,0.457 -5.652,-1.52l-75.732,-131.473c-1.139,-1.977 -0.457,-4.512 1.519,-5.65l131.473,-75.734c1.979,-1.137 4.512,-0.457 5.65,1.519l48.164,83.613l-6.715,3.703c-5.646,3.111 -9.744,8.234 -11.535,14.43c-1.793,6.193 -1.066,12.713 2.047,18.359l17.301,31.393l-1.35,0.777l-4.791,-3.238c-4.008,-2.707 -8.676,-4.139 -13.502,-4.139c-8.035,0 -15.516,3.969 -20.012,10.619l-20.83,30.82l-46.035,26.521zm215.998,43.457l-84.961,125.705c-0.773,1.143 -2.059,1.824 -3.443,1.824c-0.83,0 -1.604,-0.24 -2.303,-0.711l-125.707,-84.965c-1.234,-0.834 -1.623,-2.012 -1.744,-2.641c-0.121,-0.629 -0.201,-1.867 0.633,-3.102l84.963,-125.709c0.771,-1.139 2.057,-1.818 3.441,-1.818c0.83,0 1.605,0.238 2.303,0.709l125.707,84.961c1.891,1.28 2.389,3.856 1.111,5.747zm102.475,-84.596l-101.645,56.023l-72.43,-48.953l-37.664,-68.338c-0.721,-1.305 -0.529,-2.531 -0.352,-3.146c0.178,-0.615 0.672,-1.754 1.977,-2.473l132.881,-73.238c1.996,-1.102 4.518,-0.373 5.619,1.625l73.24,132.881c1.101,1.998 0.372,4.517 -1.626,5.619z"/>
    <path stroke="#000000" id="svg_8" fill="#e64a19" d="m282.690897,44.712385c-3.609,-6.545 -11.875,-8.934 -18.426,-5.328l-33.484,18.457c-4.838,2.666 -6.598,8.748 -3.932,13.584c2.666,4.838 8.748,6.6 13.586,3.932l27.848,-15.35l15.35,27.85c1.822,3.305 5.24,5.174 8.766,5.174c1.633,0 3.287,-0.4 4.818,-1.244c4.838,-2.666 6.598,-8.748 3.932,-13.584l-18.458,-33.491z"/>
    <path stroke="#000000" id="svg_9" fill="#e64a19" d="m107.587897,285.694385l-26.348,-17.805l17.809,-26.346c3.092,-4.576 1.891,-10.793 -2.686,-13.885c-4.576,-3.092 -10.791,-1.893 -13.885,2.686l-21.412,31.678c-4.188,6.195 -2.553,14.645 3.643,18.834l31.68,21.408c1.717,1.16 3.664,1.717 5.59,1.717c3.209,0 6.361,-1.543 8.295,-4.402c3.091,-4.576 1.888,-10.791 -2.686,-13.885z"/>
   </g>
   <g stroke="null" transform="matrix(0.054330701874772534,0,0,0.05639583923425698,3.5392371901757533,2.2293923709477137) " id="svg_10"/>
   <g stroke="null" transform="matrix(0.054330701874772534,0,0,0.05639583923425698,3.5392371901757533,2.2293923709477137) " id="svg_11"/>
   <g stroke="null" transform="matrix(0.054330701874772534,0,0,0.05639583923425698,3.5392371901757533,2.2293923709477137) " id="svg_12"/>
   <g stroke="null" transform="matrix(0.054330701874772534,0,0,0.05639583923425698,3.5392371901757533,2.2293923709477137) " id="svg_13"/>
   <g stroke="null" transform="matrix(0.054330701874772534,0,0,0.05639583923425698,3.5392371901757533,2.2293923709477137) " id="svg_14"/>
   <g stroke="null" transform="matrix(0.054330701874772534,0,0,0.05639583923425698,3.5392371901757533,2.2293923709477137) " id="svg_15"/>
   <g stroke="null" transform="matrix(0.054330701874772534,0,0,0.05639583923425698,3.5392371901757533,2.2293923709477137) " id="svg_16"/>
   <g stroke="null" transform="matrix(0.054330701874772534,0,0,0.05639583923425698,3.5392371901757533,2.2293923709477137) " id="svg_17"/>
   <g stroke="null" transform="matrix(0.054330701874772534,0,0,0.05639583923425698,3.5392371901757533,2.2293923709477137) " id="svg_18"/>
   <g stroke="null" transform="matrix(0.054330701874772534,0,0,0.05639583923425698,3.5392371901757533,2.2293923709477137) " id="svg_19"/>
   <g stroke="null" transform="matrix(0.054330701874772534,0,0,0.05639583923425698,3.5392371901757533,2.2293923709477137) " id="svg_20"/>
   <g stroke="null" transform="matrix(0.054330701874772534,0,0,0.05639583923425698,3.5392371901757533,2.2293923709477137) " id="svg_21"/>
   <g stroke="null" transform="matrix(0.054330701874772534,0,0,0.05639583923425698,3.5392371901757533,2.2293923709477137) " id="svg_22"/>
   <g stroke="null" transform="matrix(0.054330701874772534,0,0,0.05639583923425698,3.5392371901757533,2.2293923709477137) " id="svg_23"/>
   <g stroke="null" transform="matrix(0.054330701874772534,0,0,0.05639583923425698,3.5392371901757533,2.2293923709477137) " id="svg_24"/>
  </g>
 </g>
</svg>
