<?xml version="1.0"?><svg width="640" height="480" xmlns="http://www.w3.org/2000/svg">
 <title>Lemon half</title>
 <g>
  <title>Layer 1</title>
  <g id="Layer_1">
   <g>
    <path fill-rule="evenodd" fill="#F7F619" d="m346.132019,22.719999l-13.824036,-0.719999l-13.5,0.9l-13.5,2.412001l-15.875977,4.931999l-15.624023,7.344002l-15.587982,9.431999l-16.020004,13.211998l-18.899994,19.079998l-18.108002,21.132004l-17.712006,23.975998l-11.591995,18.792007l-7.596008,15.695999l-6.803986,18l-4.896011,20.412003l-2.591995,19.619995v7.091995l1.080002,11.412003l3.599991,15.587997l8.532013,31.931992l2.087997,12.38501l2.699997,36.503998l1.979996,16.488007l3.132004,12.600006l3.888,8.819l4.968002,7.667999l9,9.610992l10.800003,8.10202l12.599991,6.72998l17.423996,7.09201l30.708008,9.86499l30.708008,7.920013l24.623993,4.535004l16.488007,1.800995l16.199982,0.468994l15.300995,-1.188995l18.287018,-3.600006l18.144989,-5.399994l17.820007,-7.199005l17.567017,-9l17.388,-10.69101l20.411987,-15.300995l13.031982,-11.699005l10.620026,-13.644989l7.379974,-13.464996l4.896057,-12.813995l3.490967,-14.076019l1.907959,-12.708984l1.080017,-19.656006l-0.467957,-17.85498l-2.088013,-21.133011l-3.023987,-17.675003l-4.607025,-18l-8.712006,-24.804001l-14.256989,-32.652008l-23.363007,-46.370003l-9.468994,-14.508003l-7.308014,-8.711998l-10.979004,-10.187996l-15.731995,-11.700005l-20.988007,-12.599998l-24.011993,-11.880005l-30.707977,-12.311998z" clip-rule="evenodd"/>
    <path fill-rule="evenodd" fill="#F9F980" d="m190.791992,146.307999v-5.507996l1.296005,-7.667999l3.203995,-7.200005l6.876007,-8.711998l12.024002,-13.788002l15.587997,-16.919998l10.440002,-9.468002l4.212006,-2.232002l1.079987,0.720009v1.367996l-5.399994,11.411995l-20.23201,36l-6.47998,14.220001l-2.412003,7.667999l-0.900009,4.5l0.324005,5.832001l1.655991,5.400009l5.400009,8.207993l13.5,13.104004l8.063995,7.919998l3.456009,5.076004l1.043991,5.112l-1.223999,6.155991l-4.5,10.223999l-5.327988,8.100006l-6.012009,6.408005l-4.968002,3.202988l-3.311996,0.865005l-2.988007,-1.080002l-3.419998,-4.464996l-5.688004,-13.535995l-7.523987,-25.776001l-5.688004,-27l-2.088013,-16.128006v-2.014999l0,0z" clip-rule="evenodd"/>
    <path fill-rule="evenodd" fill="#E8E800" d="m192.988007,370.839996l0.503998,3.707001l2.375992,4.537018l6.12001,6.155975l9.32399,6.299011l13.068008,6.40799l23.651993,9.324005l32.975998,10.69101l24.299988,6.121002l21.744019,3.888977l18.287994,1.979004l15.300018,0.289001l16.09198,-1.368988l12.889008,-2.699005l13.428009,-4.5l10.799988,-5.507996l-24.839996,-7.992004l-23.579987,-9.610992l-17.100037,-8.209015l-11.375977,-7.52298l-27.143982,-21.275024l-7.776001,-4.392975l-5.400024,-1.47702l-3.599976,0.756012l-3.744019,4.03299l-3.888,8.56601l-7.09201,24.588013l-2.087982,3.925995l-1.800018,0.610992l-1.90799,-2.015991l-2.59201,-5.688995l-5.507996,-21.887024l-7.523987,-34.200989l-4.968018,-14.687988l-8.388,-19.225006l-6.623993,-11.016022l-5.039993,-5.290985l-3.600006,-1.621002h-2.699997l-5.076004,2.377014l-6.804001,6.118988l-8.495987,11.231995l-6.300003,10.980011l-3.600006,8.710999l-3.024002,11.700989l-1.188995,11.089996l0.108002,11.699005l1.800003,14.401001z" clip-rule="evenodd"/>
    <path fill-rule="evenodd" fill="#FFFFC7" d="m254.332001,242.320007l-2.843994,-17.100998l-2.268005,-25.776001l-1.188004,-32.003998l0.468002,-24.515991l1.512009,-19.800011l2.699982,-18l4.500015,-17.279999l4.895996,-12.923996l4.824005,-8.388008l7.379974,-9.287994l8.496002,-7.200001l9.503998,-5.832001l13.896027,-6.191998l14.219971,-4.176003l11.880005,-1.655998l10.619995,-0.288002l9.180023,1.332001l11.123993,3.167999l21.996002,9.720001l18,9.899998l14.112,9.504002l11.519989,9.396004l11.880005,12.780983l12.420013,17.712006l14.398987,24.408005l17.101013,34.487991l12.419983,30.311996l7.199005,22.320007l4.681,19.080002l2.519989,20.231979l0.287994,17.389038l-0.719971,16.52298l-2.376007,25.30899l-3.024017,18.46701l-3.455994,11.80899l-5.832001,11.735992l-7.380005,8.568024l-10.438995,8.493988l-11.988007,6.804993l-10.978973,4.320007l-12.744019,3.492004l-11.699982,1.799011l-10.656006,0.395996l-12.744019,-1.475006l-11.195007,-3.132996l-12.023987,-5.725006l-14.867981,-9.46701l-23.507996,-17.675995l-39.744019,-32.257996l-16.667999,-15.479004l-12.312012,-13.895996l-10.007996,-14.399994l-5.868011,-11.088013l-4.931976,-14.542999l-2.270996,-9.898987z" clip-rule="evenodd"/>
    <path fill-rule="evenodd" fill="#F7F619" d="m364.240021,196.240005l-49.320007,-39.419998l-35.100006,-29.807999l-5.399994,-6.299995l-4.5,-9.468002l-2.231995,-8.531998l-0.287994,-7.668007l1.187988,-6.443993l2.123993,-5.076004l6.40799,-9.215996l10.080017,-10.296005l7.02002,-5.579998l6.911987,-3.600002l3.888,-0.899998l3.491974,0.467999l4.175995,2.700001l4.824005,6.624001l5.328033,11.52l8.38797,22.968002l16.200012,45.719994l8.279999,28.512009l0.898987,3.707993l7.633026,20.087997z" clip-rule="evenodd"/>
    <path fill-rule="evenodd" fill="#F7F619" d="m357.328003,155.451996l-7.200012,-27.251999l-7.020996,-21.276009l-17.099976,-38.015984l-2.376007,-9.000004l-0.180023,-4.464012l1.368011,-3.743988l3.312012,-3.600002l6.587982,-3.599998l8.388,-1.98h6.444l5.399994,1.188l7.487,4.535999l6.588013,6.768002l4.393005,5.975998l-1.980011,-0.287998l3.167999,0.144001l7.919983,-0.612003l3.313019,0.612003l2.268005,1.475998l3.313019,6.299995l1.511963,7.70401v12.095993l-1.980988,23.580002l-4.933014,38.123993l-6.479004,40.716003l-3.600983,-1.619995l-2.519989,0.287994l-2.988007,2.124008l-13.102997,-36.180008z" clip-rule="evenodd"/>
    <path fill-rule="evenodd" fill="#F7F619" d="m389.619995,188.427994l0.898987,-10.584l6.732025,-33.623993l5.79599,-26.820015l4.5,-24.875999l2.411987,-6.479996l1.800018,-1.944l1.97998,-0.792l3.420013,1.511993l6.479004,6.768005l10.799988,13.211998l12.889008,15.012001l5.544006,8.82l3.455994,10.475998l1.044006,7.811996l-0.612,5.868011l-2.412018,5.651993l-3.419983,4.78801l-9,7.416l-15.876007,9.863998l-18.791992,9.612l-14.220001,6.119995l-1.799988,-0.287994l-1.188019,-2.124008l-0.431,-5.399994z" clip-rule="evenodd"/>
    <path fill-rule="evenodd" fill="#F7F619" d="m397.251984,205.419998l3.096039,-2.375992l23.003967,-8.424011l33.300018,-18.468002l7.199982,-2.699997l3.889008,-0.612l2.088013,1.512009l11.230988,21.491989l8.101013,19.476013l4.606995,16.810989l0.181,5.113007l-1.188019,2.987991l-2.411987,1.475006h-3.888l-9.720001,-2.555008l-25.488007,-8.53299l-40.212982,-10.798996l-8.712006,-3.779999l-5.399994,-4.319992l-1.007996,-2.988007l0.720001,-2.699997l0.611969,-0.612015z" clip-rule="evenodd"/>
    <path fill-rule="evenodd" fill="#F7F619" d="m395.740021,219.244003l2.879974,0.395996l16.308014,7.091995l23.220001,10.62001l12.779999,3.780991l22.644989,4.5l8.676025,2.986008l5.110992,3.60199l3.42099,4.822006l2.411011,6.40799l2.557007,10.980011l0.431976,9.899994l-0.431976,7.920013l-2.700012,14.220978l-2.700012,5.074005l-2.267975,1.225006h-1.800018l-5.221008,-1.942993l-10.511993,-7.057007l-14.399994,-12.527008l-11.699005,-13.212982l-14.221008,-17.279022l-12.599976,-11.231979l-9.899994,-9l-11.088013,-14.292007l-2.412018,-4.787994v-1.619995l1.512024,-0.576004z" clip-rule="evenodd"/>
    <path fill-rule="evenodd" fill="#F7F619" d="m352.720001,200.020004l-9.792023,-8.856003l-42.839966,-32.255997l-26.568024,-23.688004l-6.119995,-3.708008l-2.988007,-0.791992l-2.880005,1.403992l-1.799988,3.384003l-1.332001,9l-0.179993,27.324005l1.511993,10.007996l2.880005,6.804001l3.888,3.996002l6.40799,2.988007l10.403992,2.304001l17.676025,2.987991l30.419983,7.020004l11.232025,1.367996l8.100983,-0.863998l3.312012,-1.511993l0.899994,-1.800003l-0.612,-2.59201l-1.621002,-2.519989z" clip-rule="evenodd"/>
    <path fill-rule="evenodd" fill="#F7F619" d="m365.751984,224.643997l-2.520966,-0.503998l-2.59201,-0.468002l-2.519989,-0.431992l-2.593018,-0.396011l-2.627991,-0.431992l-2.627991,-0.432007l-2.664001,-0.360001l-2.699036,-0.360001l-2.735962,-0.287994l-2.772034,-0.287994l-2.807983,-0.324005l-2.880005,-0.251999l-2.880005,-0.216003l-2.951996,-0.251999l-2.951996,-0.251999l-2.988007,-0.143997l-3.131989,-0.251999l-3.23999,-0.360001l-3.420013,-0.468002l-3.420013,-0.576004l-3.527985,-0.503998l-3.527985,-0.612l-3.600006,-0.468002l-3.563995,-0.431992l-3.528015,-0.360001l-3.419983,-0.144012h-3.348022l-3.23999,0.252014l-3.059998,0.539993l-2.951996,0.791992l-2.700012,1.152008l-2.447998,1.440002l-2.160004,1.800003l-1.619995,1.90799l-1.152008,2.052002l-0.64798,2.160004l-0.360016,2.268005v2.339996l0.216003,2.376999l0.503998,2.412003l0.720001,2.519989l0.755981,2.484009l0.972015,2.375l0.972015,2.449005l0.899994,2.375l0.899994,2.304993l0.828003,2.160004l0.64798,2.123001l0.540009,2.052994l0.612,1.90799l0.612,1.799011l0.720001,1.729004l0.64801,1.763977l0.791992,1.656036l0.828003,1.618988l0.899994,1.692993l0.972015,1.619019l1.079987,1.692963l1.115997,1.72702l1.26001,1.800995l1.332001,1.871002l1.511993,1.945007l1.548004,2.050995l1.727997,2.160004l1.872009,2.484009l2.159973,2.628998l2.268005,2.878998l2.52002,2.988007l2.664001,3.167999l2.700012,3.202972l2.807983,3.240021l2.807983,3.167999l2.880035,3.061005l2.771973,3.02298l2.772003,2.809021l2.627991,2.59198l2.52002,2.268005l2.339996,1.980011l2.160004,1.621002l1.97998,1.187988l1.692017,0.863007l1.476013,0.575989l1.403992,0.359009l1.26001,0.071991l1.115967,-0.143005l1.080017,-0.289001l0.971985,-0.538971l0.900024,-0.721008l0.899994,-0.972992l0.827972,-1.080017l0.792023,-1.222992l0.828003,-1.403992l0.863983,-1.549011l0.899017,-1.729004l0.936981,-1.799011l1.044006,-2.015991l1.007996,-2.087982l1.007996,-2.521027l1.044006,-2.698975l1.080017,-2.988007l1.007996,-3.167999l1.080017,-3.382996l1.007996,-3.457001l1.043976,-3.600006l1.009003,-3.600006l0.971985,-3.671997l0.936005,-3.60199l0.899994,-3.600006l0.864014,-3.492004l0.828003,-3.348022l0.791992,-3.167999l0.720032,-3.02298l0.575989,-2.735992l0.68399,-2.771027l0.540009,-2.700974l0.539978,-2.699005l0.540009,-2.591995l0.467987,-2.557007l0.433014,-2.520004l0.359009,-2.483994l0.360016,-2.412003l0.359985,-2.304993l0.216003,-2.375l0.323975,-2.268005l0.216034,-2.197006l0.179962,-2.229996l0.14502,-2.089005l0.178986,-2.156998z" clip-rule="evenodd"/>
    <path fill-rule="evenodd" fill="#F7F619" d="m371.151001,254.630997l-18,72.396011l-1.223999,9l0.324005,7.200989l1.799988,5.110992l5.868011,5.545013l12.888,9.143005l14.220001,7.632996l10.224976,3.778992l8.675995,1.188019l9.900024,-0.287018l8.243988,-1.656006l4.355011,-2.122986l2.700012,-2.80899v-3.492004l-5.688019,-16.309021l-25.09201,-54.89798l-5.615967,-15.40802l-4.680023,-16.992004l-5.723999,-23.68898l-2.520996,-5.39801l-1.656006,-1.224991l-1.330994,0.610992l-4.393005,7.667999l-3.274994,15.011002z" clip-rule="evenodd"/>
    <path fill-rule="evenodd" fill="#F7F619" d="m394.119995,243.832001l7.307983,27.287018l13.500031,36.540985l11.123993,26.100006l7.020996,12.778992l7.954987,10.332001l4.933014,4.213013l4.391998,1.655975l3.708008,0.14502l4.967987,-2.412018l8.424988,-8.10199l7.920013,-11.088013l3.274994,-6.118988l0.792023,-4.679993l-1.367004,-3.457001l-18.14502,-20.988007l-25.77597,-27.718994l-4.212006,-6.156006l-2.699005,-6.335999l-10.692017,-11.520004l-19.727997,-19.656006l-5.292999,-6.300995l-0.720001,0.28801l0.14502,2.987l3.165985,12.205994z" clip-rule="evenodd"/>
    <path fill-rule="evenodd" fill="#FFFFC7" d="m413.451996,277.563995l-0.324005,0.286987l1.512024,6.588013l6.119995,16.201019l7.09198,13.317993l11.700012,17.60498l1.476013,1.295013v-1.295013l-4.5,-14.112976l-6.588013,-14.904022l-9,-15.118988l-7.380005,-9.863007h-0.108002l0,0z" clip-rule="evenodd"/>
    <path fill-rule="evenodd" fill="#FFFFC7" d="m437.859009,295.959015l5.579987,5.724976l13.933014,18.289001l3.888,6.912018l-0.288025,2.375l-1.94397,1.511993l-2.55603,0.289001l-3.599976,-1.621002l-3.420013,-5.075989l-7.812988,-16.811005l-3.600006,-9.792999l-0.287994,-1.800995h0.108002l0,0z" clip-rule="evenodd"/>
    <path fill-rule="evenodd" fill="#FFFFC7" d="m423.35199,243.039001h-0.179993l11.556,9l11.123993,13.393005l4.320007,5.220978l-2.231995,-6.011963l-5.688019,-9.396027l-6.47998,-5.616989l-12.02301,-6.406006l-0.397003,-0.182999z" clip-rule="evenodd"/>
    <path fill-rule="evenodd" fill="#FFFFC7" d="m445.671997,246.820007l20.880005,8.710999l11.088013,5.507996l-0.288025,0.324005l-3.599976,-0.142975l-9,-2.27002l-10.080017,-5.397995l-9,-6.30101l-0.324005,-0.610992l0.324005,0.179993z" clip-rule="evenodd"/>
    <path fill-rule="evenodd" fill="#FFFFC7" d="m424.828003,199.227997l1.332001,-0.576004l0.179993,0.180008l4.320007,-0.612l38.268005,-11.988007l0.720001,0.108002l-7.02002,4.391998l-15.768982,7.200012l-20.808014,6.40799l-5.723999,1.080002l-0.755981,-0.899994l3.454987,-4.068008l1.802002,-1.223999z" clip-rule="evenodd"/>
    <path fill-rule="evenodd" fill="#FFFFC7" d="m447.147003,217.731995l9.181,1.90799l27.540009,3.600006l0.898987,-0.108002l-16.127991,-4.5l-15.19101,-3.311996h-4.177002l-2.519989,1.188004v0.935989l0.395996,0.28801z" clip-rule="evenodd"/>
    <path fill-rule="evenodd" fill="#FFFFC7" d="m402.651001,177.843994l5.075989,-2.591995l17.101013,-11.412003l22.031006,-19.115997l3.312988,-3.815994h-0.720001l-12.312988,6.912003l-16.992004,11.231995l-11.52002,11.087997l-5.97699,7.091995v0.612l0.001007,0z" clip-rule="evenodd"/>
    <path fill-rule="evenodd" fill="#FFFFC7" d="m423.35199,140.188004l10.296021,-10.367996l1.800995,-2.808006l-2.520996,0.720001l-9.576019,5.579994l-1.690979,2.088013l-0.433014,2.843994l1.044006,1.944h1.079987l0,0z" clip-rule="evenodd"/>
    <path fill-rule="evenodd" fill="#FFFFC7" d="m379.539978,85.612l0.611023,14.832001v22.68l-1.044006,18.720009l-0.288025,1.367996l-1.078979,-6.300003l-1.332001,-22.788002l1.332001,-18.612l1.690979,-10.080002l0.109009,0.18z" clip-rule="evenodd"/>
    <path fill-rule="evenodd" fill="#FFFFC7" d="m348.832001,64.120003l5.076019,23.867996l3.419983,20.736l-0.576019,0.396004l-3.600983,-7.020004l-4.319,-12.779999l-1.080017,-11.411995v-11.088005l0.756012,-3.096001l0.324005,0.396004z" clip-rule="evenodd"/>
    <path fill-rule="evenodd" fill="#FFFFC7" d="m357.328003,121l-0.108002,0.108002l4.608002,22.824005l6.804016,28.29599l0.108002,0.216003l-4.032013,-27.720001l-3.16803,-13.391998l-4.031982,-10.223999l-0.179993,-0.108002z" clip-rule="evenodd"/>
    <path fill-rule="evenodd" fill="#FFFFC7" d="m324.208008,106.311996l8.711975,24.300003l9.612,31.751999l0.575012,4.464005l-7.955994,-17.028l-9.324005,-24.300003l-2.376007,-10.655998l-0.430969,-8.244003l0.431976,-1.080002l0.756012,0.792z" clip-rule="evenodd"/>
    <path fill-rule="evenodd" fill="#FFFFC7" d="m288.208008,110.199997l13.5,15.732002l5.112,4.967995l-0.108032,-0.899994l-5.112,-9.18l-3.779968,-4.788002l-7.632019,-5.723999l-2.087982,-0.720001l0.108002,0.612z" clip-rule="evenodd"/>
    <path fill-rule="evenodd" fill="#FFFFC7" d="m291.988007,81.723999l6.444,10.584l2.087982,2.015999l0.61203,-0.935997l-0.324036,-2.556l-6.119995,-7.020004l-2.699982,-2.304001v0.216003l0,0z" clip-rule="evenodd"/>
    <path fill-rule="evenodd" fill="#FFFFC7" d="m298.899994,77.908005l9.899994,14.399994l3.600006,4.211998v-1.619995l-2.880005,-6.912003l-4.931976,-5.687996l-5.688019,-4.680008v0.28801l0,0z" clip-rule="evenodd"/>
    <path fill-rule="evenodd" fill="#FFFFC7" d="m321.940002,185.440002l-23.940002,-11.988007l-2.988007,-0.431992l-1.511993,1.511993l0.612,2.376007l3.419983,2.843994l13.680023,4.680008l23.79599,6.40799h0.143982l-13.211975,-5.399994z" clip-rule="evenodd"/>
    <path fill-rule="evenodd" fill="#FFFFC7" d="m273.519989,186.231995l24.011993,5.507996l11.55603,1.979996l-7.776031,-3.779999l-13.823975,-4.5l-6.588013,-0.720001l-6.911987,0.324005l-1.188019,0.720001l0.720001,0.468002z" clip-rule="evenodd"/>
    <path fill-rule="evenodd" fill="#FFFFC7" d="m279.712006,226.119995l9.287994,0.108002l36.828003,2.735001l2.880005,0.757996l-1.476013,1.043015l-8.099976,1.366989h-7.200012l-19.620026,-3.022995l-12.599976,-2.878998l-0.180023,-0.108002h0.180023l0,-0.001007z" clip-rule="evenodd"/>
    <path fill-rule="evenodd" fill="#FFFFC7" d="m333.531982,236.164001h-1.403992l-25.596008,9.755997l-18.719971,6.587997l-0.179993,0.611008l8.567993,-0.180008l11.411987,-1.618988l5.79599,-1.693008l9.324005,-5.074005l10.296021,-7.919998l0.503967,-0.468994z" clip-rule="evenodd"/>
    <path fill-rule="evenodd" fill="#FFFFC7" d="m353.438995,244.552994l-0.610992,10.690994l-3.420013,26.207001l-2.088989,10.188995l-3.490997,7.920013l-2.809021,3.923981l-1.367981,0.287018l-0.322998,-4.320007l1.979004,-16.019989l5.399994,-21.203003l5.544006,-16.309006l1.079987,-1.477005l0.108002,0.111008z" clip-rule="evenodd"/>
    <path fill-rule="evenodd" fill="#FFFFC7" d="m373.419983,290.632996l-3.312988,19.330017l-2.987,24.265991l0.611023,1.042999l2.087982,-3.924011l1.619995,-7.919983l1.980011,-28.800995v-4.176025v0.182007l0.000977,0z" clip-rule="evenodd"/>
    <path fill-rule="evenodd" fill="#FFFFC7" d="m381.951996,276.053009l0.180023,4.96698l2.375977,16.453003l2.700012,10.080017l5.219971,11.087982l8.100006,12.420013l1.332001,1.079987l-4.31897,-12.781006l-9.612,-25.595978l-5.796021,-17.710999l-0.179993,-0.144989v0.144989l-0.001007,0z" clip-rule="evenodd"/>
    <path fill-rule="evenodd" fill="#F9F980" d="m185.391998,286.85199h-2.591995l-5.508011,3.167999l-0.179993,0.721008l4.679993,1.690979l0.900009,2.340027l0.576004,4.5l1.332001,0.289001l4.067993,-2.088013l1.332001,-1.800995l-0.899994,-3.563995l-2.520004,-4.355011l-1.188004,-0.901001z" clip-rule="evenodd"/>
    <path fill-rule="evenodd" fill="#DBDB00" d="m187.587997,285.231995l-1.908005,-0.179993l-5.399994,2.59198l-0.899994,1.295013l4.608002,1.800995l0.899994,2.411987l0.791992,4.5l1.512009,0.287018l4.319992,-2.375l0.900009,-2.018005l-1.512009,-4.428009l-2.987991,-3.778992l-0.324005,-0.106995z" clip-rule="evenodd"/>
    <path fill-rule="evenodd" fill="#F9F980" d="m185.968002,186.339996h-2.376007l-5.112,2.880005l-0.179993,0.720001l4.5,1.800003l0.899994,3.599991l0.468002,2.412003l1.332001,0.468002l3.600006,-1.800003l1.187988,-2.268005l-1.799988,-4.787994l-2.376007,-3.024002h-0.143997l0,0z" clip-rule="evenodd"/>
    <path fill-rule="evenodd" fill="#DBDB00" d="m188.199997,184.720001h-2.087997l-5.543991,2.987991l-0.180008,0.720001l4.391998,1.512009l0.899994,2.412003l0.612,3.888l1.296005,0.32399l3.600006,-1.799988l1.403992,-2.23201l-1.511993,-4.5l-2.699997,-3.311996h-0.180008l0,0z" clip-rule="evenodd"/>
    <path fill-rule="evenodd" fill="#F9F980" d="m209.080002,353.270996l-1.800003,-0.324005l-5.580002,2.125l-3.888,2.988007l0.468002,0.610992l5.688004,1.980011l1.332001,2.699005l0.791992,6.121002l1.188004,1.079987l2.412003,-0.468994l4.320007,-2.519989l1.475998,-2.59201l-1.296005,-4.93399l-3.779999,-5.867004l-1.332001,-0.89801z" clip-rule="evenodd"/>
    <path fill-rule="evenodd" fill="#DBDB00" d="m212.212006,351.039001l-1.800003,-0.286987l-6.444,2.519989l-3.167999,2.700989l1.080002,0.791016l4.787994,1.296997l1.511993,1.798981l1.188004,7.488007l1.332001,0.792999l2.988007,-0.899994l3.779999,-2.557007l1.043991,-2.411987l-1.511993,-5.112l-3.419998,-5.221008l-1.367996,-0.899994z" clip-rule="evenodd"/>
    <path fill-rule="evenodd" fill="#F9F980" d="m226.179993,203.440002h-1.691986l-3.708008,2.26799l-0.179993,0.324005l3.311996,1.188004l0.755997,3.600006l0.432007,0.899994l2.880005,-1.080002l1.187988,-1.619995l-1.800003,-4.5l-1.188004,-1.080002z" clip-rule="evenodd"/>
    <path fill-rule="evenodd" fill="#DBDB00" d="m227.692001,202.432007h-1.692001l-3.708008,2.195999l-0.179993,0.324005l3.276001,1.188004l0.791992,3.599991l0.432007,0.900009l3.167999,-1.332001l0.899994,-1.475998l-1.691986,-4.212006l-1.296005,-1.188004z" clip-rule="evenodd"/>
    <path fill-rule="evenodd" fill="#F9F980" d="m216.891998,250.419998l-0.179993,0.145004l4.067993,4.787003l1.908005,1.080002l2.304001,-1.80101l0.576004,-1.798996l-2.556,-1.511993l-5.544006,-1.080002l-0.576004,0.179993z" clip-rule="evenodd"/>
    <path fill-rule="evenodd" fill="#DBDB00" d="m218.188004,249.626999l-0.108002,0.216995l4.031998,4.789001l1.979996,1.008011l2.195999,-1.80101l0.612,-1.800995l-2.519989,-1.475006l-5.580002,-1.044998l-0.612,0.108002z" clip-rule="evenodd"/>
    <path fill-rule="evenodd" fill="#F9F980" d="m266.608002,352.084015l-0.108002,0.144989l3.888,4.824005l1.944,1.007996l2.376007,-1.800995l0.612,-1.800995l-2.52002,-1.511993l-5.579987,-1.008026l-0.612,0.14502z" clip-rule="evenodd"/>
    <path fill-rule="evenodd" fill="#DBDB00" d="m268.011993,351.363007l-0.179993,0.109009l4.067993,4.786987l1.90799,1.080017l2.304016,-1.800995l0.575989,-1.799011l-2.555969,-1.511993l-5.544006,-1.080017l-0.576019,0.216003z" clip-rule="evenodd"/>
    <path fill-rule="evenodd" fill="#F9F980" d="m302.932007,372.027008l-0.144012,0.144989l3.024017,4.5l5.399994,4.968994l1.475983,0.432007l3.132019,-2.125l1.691986,-3.600006l-1.403992,-1.47699l-9.287994,-2.843994l-3.888,-0.143005v0.143005l0,0z" clip-rule="evenodd"/>
    <path fill-rule="evenodd" fill="#DBDB00" d="m305.200012,370.839996l-0.179993,0.106995l2.699982,4.213013l5.868011,5.290985l1.511993,0.434021l2.808014,-1.945007l1.94397,-3.455017l-0.719971,-1.655975l-8.244019,-2.664001l-5.580017,-0.611023l-0.107971,0.286011z" clip-rule="evenodd"/>
    <path fill-rule="evenodd" fill="#F9F980" d="m221.5,318.640991l-0.108002,0.106995l2.195999,3.81601l6.192001,5.687988l1.511993,0.432007l2.808014,-1.942993l1.90799,-3.781006l-1.007996,-1.475983l-8.531998,-2.735992l-4.78801,-0.395996l-0.179993,0.288971z" clip-rule="evenodd"/>
    <path fill-rule="evenodd" fill="#DBDB00" d="m223.768005,317.270996l-0.180008,0.179993l3.492004,5.113007l5.688004,4.787018h1.511993l2.951996,-2.699005l1.188004,-3.024994l-1.332001,-1.475006l-7.020004,-2.412018l-6.155991,-0.792999l-0.143997,0.324005z" clip-rule="evenodd"/>
    <path fill-rule="evenodd" fill="#F9F980" d="m292.708008,350.752014l-0.108032,0.106995l3.888031,4.824005l1.944,1.079987l2.375977,-1.800995l0.612,-1.798981l-2.519989,-1.512024l-5.579987,-1.079987l-0.612,0.181z" clip-rule="evenodd"/>
    <path fill-rule="evenodd" fill="#DBDB00" d="m294.112,349.959015l-0.179993,0.182007l4.067993,4.932007l1.90802,1.079987l1.97998,-1.692993l0.899994,-2.088013l-1.655975,-1.007996l-6.444031,-1.69101l-0.575989,0.286011z" clip-rule="evenodd"/>
    <path fill-rule="evenodd" fill="#F9F980" d="m250.012009,296.859009l-0.144012,0.179993l-0.035995,0.182007l-0.071991,0.143005v0.144989v0.21701v0.143005v0.21698l0.071991,0.14502l0.035995,0.214996l0.144012,0.144989l0.035995,0.21701l0.143997,0.143005l0.180008,0.21698l0.108002,0.14502l0.179993,0.143005l0.251999,0.108978l0.179993,0.179993l0.180008,0.14502l0.216003,0.035004l0.179993,0.106995l0.251999,0.071991l0.180008,0.071991h0.251984h0.180008h0.216003h0.180008l0.179993,-0.071991l0.179993,-0.071991l0.180008,-0.106995l0.143997,-0.035004l0.108002,-0.14502l0.179993,-0.179993l0.072006,-0.108978l0.035995,-0.143005v-0.14502l0.072006,-0.21698v-0.143005l-0.072006,-0.21701v-0.21698l-0.035995,-0.180023l-0.072006,-0.179993l-0.071991,-0.251984l-0.108002,-0.180023l-0.108002,-0.179993l-0.143997,-0.179993l-0.180008,-0.182007l-0.108002,-0.106995l-0.179993,-0.179993l-0.251999,-0.107025l-0.179993,-0.144989l-0.216019,-0.071991l-0.179993,-0.035004l-0.251999,-0.071991l-0.251999,-0.037018h-0.179993h-0.180008l-0.216003,0.037018h-0.179993l-0.180008,0.071991l-0.179993,0.035004l-0.179993,0.144989l-0.144012,0.071991l-0.108002,0.107025l-0.107986,0.105988z" clip-rule="evenodd"/>
    <path fill-rule="evenodd" fill="#DBDB00" d="m250.40799,296.140991l-0.107986,0.179993l-0.108002,0.106995l-0.072006,0.21701v0.143005l-0.071991,0.21701v0.144989l0.071991,0.214996l0.072006,0.144989l0.035995,0.21701l0.072006,0.143005l0.072006,0.21698l0.108002,0.14502l0.179993,0.214996l0.108002,0.109009l0.179993,0.179993l0.251999,0.106995l0.180008,0.179993l0.179993,0.072021l0.251999,0.106995l0.180008,0.071991l0.216003,0.037018l0.179993,0.069977h0.251999h0.180008h0.251999h0.179993l0.180008,-0.069977l0.179993,-0.037018l0.179993,-0.071991l0.108002,-0.106995l0.108002,-0.072021l0.180008,-0.179993l0.072006,-0.106995l0.071991,-0.179993v-0.182007l0.035995,-0.179993v-0.180023l-0.035995,-0.179993v-0.179993l-0.071991,-0.252014l-0.072006,-0.179993l-0.035995,-0.182007l-0.144012,-0.179993l-0.108002,-0.179993l-0.108002,-0.179993l-0.179993,-0.180023l-0.143997,-0.179993l-0.180008,-0.182007l-0.215988,-0.106995l-0.180008,-0.071991l-0.251999,-0.106995l-0.179993,-0.072021l-0.251999,-0.034973h-0.180008h-0.216003h-0.179993h-0.180008l-0.251999,0.035004l-0.108002,0.071991l-0.179993,0.035004l-0.180008,0.072021l-0.143997,0.144989l-0.107986,0.106995l-0.072021,0.109985z" clip-rule="evenodd"/>
    <path fill-rule="evenodd" fill="#F9F980" d="m222.112,144.723999l-0.143997,0.143997l-0.035995,0.144012v0.179993v0.180008l-0.072006,0.179993l0.072006,0.179993v0.180008l0.035995,0.179993l0.072006,0.180008l0.071991,0.179993l0.108002,0.180008l0.108002,0.179993l0.143997,0.180008l0.180008,0.108002l0.108002,0.179993l0.251999,0.108002l0.179993,0.216003l0.180008,0.035995l0.215988,0.108002l0.180008,0.072006l0.251984,0.071991l0.180008,0.071991h0.251999h0.180008h0.179993h0.216003l0.143997,-0.071991l0.179993,-0.071991l0.180008,-0.072006l0.108002,-0.108002l0.108002,-0.035995l0.143997,-0.216003l0.036011,-0.108002l0.143997,-0.179993l0.035995,-0.108002v-0.180008l0.071991,-0.179993v-0.180008l-0.071991,-0.179993v-0.180008l-0.108002,-0.179993l-0.071991,-0.180008l-0.036011,-0.179993l-0.143997,-0.179993l-0.179993,-0.180008l-0.108002,-0.179993l-0.180008,-0.144012l-0.179993,-0.143997l-0.252014,-0.143997l-0.179993,-0.108002l-0.216003,-0.071991l-0.179993,-0.108017l-0.252014,-0.071991l-0.179993,-0.072006h-0.251999h-0.180008h-0.215988h-0.179993l-0.180008,0.072006l-0.179993,0.071991l-0.180008,0.108017l-0.143997,0.071991l-0.108002,0.108002l-0.108002,0.143997z" clip-rule="evenodd"/>
    <path fill-rule="evenodd" fill="#DBDB00" d="m222.580002,143.932007l-0.108002,0.179993l-0.143997,0.179993l-0.036011,0.108017v0.179993l-0.071991,0.180008v0.179993l0.071991,0.179993v0.180008l0.036011,0.180008l0.143997,0.179993l0.035995,0.179993l0.144012,0.179993l0.108002,0.180008l0.179993,0.180008l0.108002,0.143997l0.251999,0.108002l0.180008,0.179993l0.179993,0.108002l0.251999,0.072006l0.215988,0.108002l0.180008,0.071991l0.251999,0.072006h0.179993h0.252014h0.179993h0.179993l0.180008,-0.072006l0.179993,-0.071991l0.180008,-0.108002l0.108002,-0.072006l0.108002,-0.108002l0.179993,-0.179993l0.072006,-0.108002l0.072006,-0.143997l0.035995,-0.180008v-0.180008v-0.179993v-0.179993v-0.179993l-0.035995,-0.180008l-0.072006,-0.180008l-0.108002,-0.179993l-0.072006,-0.179993l-0.107986,-0.180008l-0.180008,-0.179993l-0.143997,-0.108017l-0.179993,-0.179993l-0.180008,-0.179993l-0.216003,-0.144012l-0.179993,-0.035995l-0.252014,-0.108002l-0.179993,-0.072006l-0.251999,-0.071991l-0.180008,-0.071991h-0.179993l-0.216003,-0.036011l-0.179993,0.036011h-0.179993l-0.180008,0.071991l-0.179993,0.071991l-0.144012,0.072006l-0.107986,0.108002l-0.108002,0.035995l-0.072006,0.144012z" clip-rule="evenodd"/>
    <path fill-rule="evenodd" fill="#F9F980" d="m366.651001,383.152008l-0.143982,0.179993l-0.036011,0.106995v0.180023v0.181976l-0.072021,0.180023l0.072021,0.179993v0.179993l0.036011,0.179993l0.07196,0.180023l0.071014,0.179993l0.108002,0.182007l0.108002,0.179993l0.144012,0.179993l0.179993,0.14502l0.108002,0.142975l0.251984,0.14502l0.179993,0.179993l0.18103,0.036987l0.216003,0.143005l0.179993,0.072021l0.252014,0.036987l0.181,0.071991h0.251984h0.179993h0.180023h0.215973l0.144989,-0.071991l0.180023,-0.036987l0.181,-0.072021l0.106995,-0.143005l0.108002,-0.036987l0.143982,-0.179993l0.036011,-0.14502l0.144012,-0.142975l0.036011,-0.14502v-0.179993l0.07196,-0.179993v-0.182007l-0.07196,-0.179993v-0.180023l-0.107025,-0.179993l-0.071991,-0.179993l-0.03598,-0.179993l-0.144012,-0.180023l-0.181,-0.181976l-0.107025,-0.180023l-0.179993,-0.106995l-0.180969,-0.179993l-0.252014,-0.109009l-0.180023,-0.142975l-0.216003,-0.072021l-0.180969,-0.106995l-0.252014,-0.036987l-0.179993,-0.072021h-0.252014h-0.179993h-0.21698h-0.180023l-0.179993,0.072021l-0.181,0.036987l-0.179993,0.106995l-0.144012,0.072021l-0.108002,0.142975l-0.106995,0.109009z" clip-rule="evenodd"/>
    <path fill-rule="evenodd" fill="#DBDB00" d="m367.119995,382.359009l-0.108002,0.179993l-0.144012,0.182007l-0.03598,0.106995v0.214996l-0.072021,0.14502v0.21698l0.072021,0.143005v0.21701l0.03598,0.144989l0.144012,0.214996l0.036011,0.14502l0.144012,0.21698l0.108002,0.143005l0.179962,0.21701l0.108032,0.106995l0.251984,0.109009l0.180023,0.179993l0.180969,0.106995l0.252014,0.071991l0.216003,0.14502l0.179993,0.035004l0.252014,0.071991h0.180969h0.252014h0.179993h0.180023l0.181,-0.071991l0.179993,-0.035004l0.179993,-0.14502l0.108002,-0.071991l0.106995,-0.106995l0.181,-0.179993l0.071014,-0.109009l0.071991,-0.106995l0.036011,-0.21701v-0.143005v-0.21698v-0.14502v-0.214996l-0.036011,-0.144989l-0.071991,-0.21701l-0.107025,-0.143005l-0.071991,-0.21698l-0.107971,-0.14502l-0.180023,-0.214996l-0.143982,-0.106995l-0.18103,-0.182007l-0.179993,-0.179993l-0.216003,-0.106995l-0.179993,-0.071991l-0.252014,-0.107025l-0.181976,-0.072998l-0.251984,-0.036987l-0.179993,-0.070007h-0.180023l-0.21698,-0.071991l-0.180023,0.071991h-0.179993l-0.181,0.070007l-0.180023,0.036987l-0.143982,0.071991l-0.108002,0.106995l-0.108002,0.072021l-0.070007,0.108002z" clip-rule="evenodd"/>
    <path fill-rule="evenodd" fill="#F9F980" d="m220.167999,95.188004l-0.216003,0.323997l-0.143997,0.251999l-0.035995,0.288002l-0.072006,0.287994l-0.072006,0.288002l0.072006,0.324005l0.072006,0.359993l0.035995,0.288002l0.143997,0.360001l0.180008,0.323997l0.179993,0.288002l0.179993,0.288002l0.28801,0.288002l0.251999,0.323997l0.28801,0.288002l0.359985,0.251999l0.28801,0.215996l0.360001,0.252007l0.360001,0.107994l0.360001,0.216003l0.359985,0.035995l0.360016,0.072006l0.359985,0.035995h0.360016l0.32399,-0.035995l0.360001,-0.072006l0.28801,-0.035995l0.287994,-0.143997l0.324005,-0.18l0.215988,-0.18l0.252014,-0.18l0.251984,-0.288002l0.108002,-0.251999l0.108002,-0.216003l0.072006,-0.323997l0.072006,-0.288002v-0.323997v-0.288002l-0.072006,-0.360001l-0.072006,-0.288002l-0.108002,-0.359993l-0.108002,-0.288002l-0.179993,-0.324005l-0.251999,-0.287994l-0.251999,-0.324005l-0.216003,-0.287994l-0.32399,-0.288002l-0.28801,-0.288002l-0.432007,-0.215996l-0.359985,-0.216003l-0.360016,-0.18l-0.395996,-0.108002l-0.359985,-0.143997l-0.360001,-0.071999h-0.360001l-0.360016,-0.036003l-0.32399,0.036003l-0.360001,0.071999l-0.287994,0.071999l-0.28801,0.108002l-0.251999,0.18l-0.251999,0.18l-0.180008,0.251999l-0.179993,0.216003z" clip-rule="evenodd"/>
    <path fill-rule="evenodd" fill="#DBDB00" d="m220.600006,93.82l-0.180008,0.288002l-0.108002,0.323997l-0.071991,0.288002l-0.072006,0.323997v0.288002l0.072006,0.288002l0.071991,0.287994l0.108002,0.360001l0.108002,0.324005l0.180008,0.360001l0.179993,0.287994l0.179993,0.324005l0.252014,0.287994l0.287994,0.288002l0.324005,0.251999l0.359985,0.251999l0.28801,0.288002l0.360001,0.18l0.360001,0.18l0.360001,0.108002l0.359985,0.108002l0.360016,0.143997h0.359985l0.360016,0.071999l0.287994,-0.071999h0.360001l0.324005,-0.143997l0.287994,-0.108002l0.28801,-0.108002l0.251984,-0.18l0.252014,-0.18l0.215988,-0.288002l0.143997,-0.251999l0.108017,-0.323997l0.071991,-0.288002l0.035995,-0.360001v-0.287994v-0.360001l-0.035995,-0.288002l-0.071991,-0.360001l-0.180008,-0.323997l-0.108002,-0.288002l-0.179993,-0.360001l-0.252014,-0.323997l-0.251984,-0.288002l-0.28801,-0.288002l-0.360001,-0.251999l-0.28801,-0.288002l-0.360001,-0.251999l-0.359985,-0.18l-0.360001,-0.18l-0.360001,-0.108002l-0.360001,-0.107994l-0.360001,-0.072006h-0.360001h-0.324005h-0.360001l-0.360001,0.072006l-0.287994,0.107994l-0.28801,0.108002l-0.32399,0.144005l-0.216003,0.143997l-0.251999,0.251999l-0.179993,0.18z" clip-rule="evenodd"/>
    <path fill-rule="evenodd" fill="#F9F980" d="m244.899994,264.027008l-0.179993,0.323975l-0.108002,0.289001l-0.071991,0.321991l-0.072006,0.289032v0.286987v0.289001l0.072006,0.324005l0.071991,0.358978l0.108002,0.289032l0.179993,0.358978l0.180008,0.324005l0.251999,0.286987l0.216003,0.289001l0.324005,0.286987l0.287994,0.252014l0.359985,0.252014l0.28801,0.289001l0.360001,0.179993l0.360001,0.179993l0.360001,0.14502l0.360001,0.106995l0.360001,0.034973h0.360001h0.360001h0.360001l0.324005,-0.034973l0.287994,-0.106995l0.287994,-0.14502l0.324005,-0.106995l0.215988,-0.182007l0.252014,-0.252014l0.251999,-0.251984l0.107986,-0.214996l0.108002,-0.289001l0.072006,-0.324005l0.072006,-0.286987v-0.324005v-0.286987l-0.072006,-0.289032l-0.072006,-0.358978l-0.108002,-0.289001l-0.179993,-0.359009l-0.179993,-0.323975l-0.252014,-0.287018l-0.215988,-0.324005l-0.324005,-0.289001l-0.287994,-0.214996l-0.287994,-0.324005l-0.360001,-0.252014l-0.360016,-0.144989l-0.359985,-0.214996l-0.360016,-0.108978l-0.359985,-0.106995l-0.360016,-0.14502h-0.360001l-0.359985,-0.035004l-0.360001,0.035004l-0.324005,0.071991l-0.287994,0.072021l-0.287994,0.106995l-0.324005,0.179993l-0.216003,0.182007l-0.251999,0.252014l-0.180008,0.214996z" clip-rule="evenodd"/>
    <path fill-rule="evenodd" fill="#DBDB00" d="m245.511993,262.731995l-0.179993,0.286987l-0.143997,0.252014l-0.035995,0.289001l-0.072006,0.323975v0.287018v0.287018l0.072006,0.360962l0.035995,0.287018l0.143997,0.361023l0.108002,0.32196l0.180008,0.289032l0.251999,0.323975l0.215988,0.287018l0.251999,0.289001l0.287994,0.286987l0.360016,0.251984l0.359985,0.252014l0.360016,0.21701l0.359985,0.214996l0.360016,0.109009l0.359985,0.106995l0.432007,0.071991l0.360001,0.071991h0.287994h0.360001l0.324005,-0.071991l0.360001,-0.071991l0.215988,-0.106995l0.324005,-0.109009l0.216003,-0.214996l0.179993,-0.21701l0.252014,-0.252014l0.108002,-0.251984l0.179993,-0.286987l0.072006,-0.289001l0.071991,-0.359009v-0.289001v-0.359009l-0.071991,-0.324005l-0.072006,-0.357971l-0.108002,-0.289001l-0.179993,-0.358978l-0.180008,-0.324005l-0.251999,-0.287018l-0.216003,-0.289001l-0.251999,-0.287018l-0.287994,-0.323975l-0.324005,-0.286987l-0.360001,-0.182037l-0.360001,-0.251984l-0.360001,-0.106995l-0.360001,-0.179993l-0.360001,-0.072021l-0.359985,-0.035004l-0.360016,-0.07196h-0.359985l-0.360016,0.07196l-0.287994,0.035004l-0.287994,0.072021l-0.324005,0.106995l-0.287994,0.179993l-0.251999,0.182007l-0.216003,0.179993l-0.180008,0.25z" clip-rule="evenodd"/>
    <path fill-rule="evenodd" fill="#F9F980" d="m181.791992,244.119003l-0.251984,0.32399l-0.108002,0.21701l-0.072006,0.287003l-0.072006,0.32399l-0.035995,0.289001l0.035995,0.324005l0.072006,0.358994l0.072006,0.287003l0.108002,0.361008l0.179993,0.286987l0.179993,0.289001l0.180008,0.322006l0.287994,0.289001l0.251999,0.32399l0.28801,0.287003l0.360001,0.21701l0.32399,0.251999l0.360001,0.251999l0.360001,0.179993l0.360001,0.10701l0.360001,0.144989l0.395996,0.035004l0.360001,0.072006h0.360001h0.324005l0.360001,-0.072006l0.287994,-0.035004l0.28801,-0.144989l0.32399,-0.10701l0.216003,-0.179993l0.179993,-0.251999l0.252014,-0.251999l0.108002,-0.21701l0.179993,-0.287003l0.072006,-0.32399l0.071991,-0.289001v-0.322006v-0.360992l-0.071991,-0.287003l-0.072006,-0.361008l-0.108002,-0.357986l-0.179993,-0.287003l-0.180008,-0.360992l-0.251999,-0.287003l-0.216003,-0.324005l-0.251999,-0.286987l-0.287994,-0.324005l-0.324005,-0.289001l-0.360001,-0.179993l-0.360001,-0.180008l-0.360001,-0.179993l-0.360001,-0.109009l-0.360001,-0.069992l-0.395996,-0.072006l-0.360001,-0.037003h-0.360001h-0.32399l-0.360001,0.037003l-0.28801,0.143005l-0.287994,0.108994l-0.324005,0.106995l-0.215988,0.21701l-0.180008,0.14299l-0.180008,0.25z" clip-rule="evenodd"/>
    <path fill-rule="evenodd" fill="#DBDB00" d="m182.367996,242.751999l-0.215988,0.287003l-0.144012,0.324005l-0.035995,0.288986l-0.072006,0.287003l-0.071991,0.289001l0.071991,0.359009l0.072006,0.32399l0.035995,0.359009l0.144012,0.289001l0.179993,0.32399l0.179993,0.359009l0.180008,0.287003l0.287994,0.288986l0.251999,0.252014l0.28801,0.286987l0.360001,0.180008l0.287994,0.289001l0.360001,0.214996l0.360001,0.145004l0.360001,0.144989l0.360001,0.10701l0.360001,0.106995h0.360001l0.360001,0.072006l0.324005,-0.072006h0.360001l0.287994,-0.106995l0.287994,-0.10701l0.324005,-0.144989l0.216003,-0.145004l0.251999,-0.214996l0.251999,-0.289001l0.108002,-0.214996l0.108002,-0.251999l0.071991,-0.324005l0.072006,-0.289001v-0.356995v-0.287003l-0.072006,-0.360992l-0.071991,-0.287003l-0.180008,-0.358994l-0.108002,-0.324005l-0.179993,-0.360992l-0.251999,-0.287003l-0.216003,-0.324005l-0.324005,-0.216995l-0.360001,-0.287003l-0.287994,-0.251999l-0.360001,-0.180008l-0.360001,-0.251999l-0.360001,-0.179993l-0.360001,-0.109009l-0.360001,-0.106995l-0.360001,-0.072006l-0.287994,-0.071991h-0.360001h-0.360001l-0.324005,0.071991l-0.287994,0.072006l-0.28801,0.106995l-0.251999,0.109009l-0.251999,0.179993l-0.179993,0.251999l-0.180008,0.177994z" clip-rule="evenodd"/>
    <path fill-rule="evenodd" fill="#F9F980" d="m253,383.26001l-0.251999,0.286987l-0.108002,0.324005l-0.071991,0.289001l-0.036011,0.324005l-0.071991,0.286987l0.071991,0.359009l0.036011,0.289001l0.071991,0.359009l0.108002,0.289001l0.180008,0.324005l0.179993,0.358978l0.179993,0.287018l0.324005,0.324005l0.216003,0.21698l0.324005,0.287018l0.359985,0.21698l0.28801,0.287018l0.360001,0.179993l0.359985,0.182007l0.360001,0.106995l0.360001,0.106995l0.360016,0.144989h0.359985l0.360016,0.072021l0.287994,-0.072021h0.360016l0.323975,-0.144989l0.288025,-0.106995l0.287964,-0.106995l0.252014,-0.182007l0.252014,-0.179993l0.216003,-0.287018l0.143982,-0.251984l0.108002,-0.252014l0.071991,-0.289001l0.036011,-0.358978v-0.287018v-0.324005l-0.036011,-0.360992l-0.071991,-0.359009l-0.179993,-0.286987l-0.108002,-0.360992l-0.179993,-0.324005l-0.252014,-0.359009l-0.252014,-0.286987l-0.287964,-0.289001l-0.360016,-0.252014l-0.287994,-0.286987l-0.360016,-0.179993l-0.359985,-0.182007l-0.360016,-0.179993l-0.359985,-0.143005l-0.359985,-0.037018l-0.360016,-0.071991l-0.324005,-0.035004h-0.360001h-0.360001l-0.287994,0.035004l-0.287994,0.071991l-0.324005,0.107025l-0.216003,0.144989l-0.251999,0.144989l-0.180008,0.252014l-0.179993,0.179993z" clip-rule="evenodd"/>
    <path fill-rule="evenodd" fill="#DBDB00" d="m253.432007,381.963013l-0.180008,0.289001l-0.143997,0.21701l-0.035995,0.321991l-0.072006,0.288971v0.359009v0.324005l0.072006,0.358978l0.107986,0.289001l0.108002,0.359009l0.144012,0.359009l0.179993,0.289001l0.216003,0.286987l0.251999,0.360992l0.287994,0.324005l0.360001,0.252014l0.360001,0.214996l0.324005,0.251984l0.360001,0.180023l0.360016,0.181976l0.359985,0.107025l0.359985,0.071991l0.360016,0.071991l0.359985,0.035004h0.360016h0.287994l0.360016,-0.035004l0.287964,-0.071991l0.324036,-0.144989l0.287994,-0.107025l0.251984,-0.179993l0.216003,-0.21701l0.252014,-0.251984l0.107971,-0.252014l0.144012,-0.289001l0.036011,-0.286987l0.071991,-0.324005v-0.286987l-0.071991,-0.324005l-0.036011,-0.289001l-0.144012,-0.359009l-0.107971,-0.286987l-0.180023,-0.360992l-0.179993,-0.287018l-0.179993,-0.324005l-0.252014,-0.289001l-0.287994,-0.321991l-0.287994,-0.21701l-0.324005,-0.286987l-0.359985,-0.253998l-0.360016,-0.179993l-0.359985,-0.180023l-0.360016,-0.106995l-0.359985,-0.144989l-0.360016,-0.106995h-0.359985l-0.28801,-0.072021l-0.360001,0.072021h-0.359985l-0.28801,0.106995l-0.324005,0.144989l-0.287994,0.106995l-0.251999,0.180023l-0.216003,0.179993l-0.179993,0.253021z" clip-rule="evenodd"/>
    <path fill-rule="evenodd" fill="#F9F980" d="m282.231995,331.671997l-0.143982,0.179993l-0.036011,0.180023l-0.072021,0.108978l-0.071991,0.180023v0.179993v0.179993l0.071991,0.179993l0.072021,0.179993l0.036011,0.182007l0.143982,0.180023l0.036011,0.179993l0.179962,0.179993l0.144012,0.179993l0.179993,0.179993l0.108002,0.109009l0.252014,0.143005l0.179993,0.182007l0.179993,0.106995l0.216034,0.071991l0.179962,0.106995l0.252014,0.072021l0.180023,0.035004h0.179962h0.252014h0.180023h0.179993l0.179993,-0.035004l0.108002,-0.072021l0.179993,-0.106995l0.108002,-0.071991l0.179993,-0.106995l0.144012,-0.182007l0.03598,-0.143005l0.072021,-0.109009l0.071991,-0.179993l0.036011,-0.179993v-0.179993v-0.179993l-0.036011,-0.180023l-0.071991,-0.182007l-0.072021,-0.179993l-0.107971,-0.179993l-0.072021,-0.179993l-0.179993,-0.179993l-0.108002,-0.180023l-0.179993,-0.108978l-0.108002,-0.180023l-0.179993,-0.179993l-0.252014,-0.106995l-0.179993,-0.071991l-0.252014,-0.14502l-0.179993,-0.035004l-0.216003,-0.071991l-0.179993,-0.036987h-0.179993l-0.180023,-0.072021l-0.251984,0.072021h-0.179993l-0.180023,0.036987l-0.108002,0.071991l-0.179993,0.035004l-0.144012,0.14502l-0.179962,0.071991l-0.036011,0.106995z" clip-rule="evenodd"/>
    <path fill-rule="evenodd" fill="#DBDB00" d="m282.519989,330.950989l-0.108002,0.182007l-0.071991,0.106995v0.179993v0.179993l-0.071991,0.180023l0.071991,0.179993v0.182007l0.071991,0.179993l0.036011,0.179993l0.071991,0.179993l0.108002,0.180023l0.144012,0.179993l0.108002,0.182007l0.179993,0.143005l0.108002,0.144989l0.251984,0.144989l0.180023,0.179993l0.179993,0.035004l0.251984,0.14502l0.180023,0.071991l0.215973,0.035004l0.180023,0.071991h0.251984h0.179993h0.180023h0.251984l0.108032,-0.071991l0.179962,-0.035004l0.180023,-0.071991l0.108002,-0.14502l0.144012,-0.035004l0.108002,-0.179993l0.07196,-0.144989l0.036011,-0.144989l0.071991,-0.143005l0.072021,-0.182007v-0.179993v-0.180023l-0.072021,-0.179993l-0.071991,-0.179993l-0.036011,-0.179993l-0.143982,-0.182007l-0.03598,-0.179993l-0.180023,-0.180023l-0.144012,-0.179993l-0.179993,-0.179993l-0.107971,-0.106995l-0.180023,-0.182007l-0.179993,-0.106995l-0.180023,-0.144989l-0.251984,-0.072021l-0.179993,-0.106995l-0.180023,-0.035004l-0.215973,-0.071991h-0.180023h-0.179993h-0.251984h-0.179993l-0.179993,0.071991l-0.179993,0.035004l-0.180023,0.106995l-0.108002,0.072021l-0.144012,0.144989l-0.108002,0.106995z" clip-rule="evenodd"/>
    <path fill-rule="evenodd" fill="#F9F980" d="m253.108002,71.32l-0.108002,0.18l-0.108002,0.18l-0.071991,0.107994v0.216003l-0.072006,0.144005v0.215996l0.072006,0.143997l0.071991,0.216003l0.036011,0.144005l0.071991,0.215996l0.072006,0.143997l0.107986,0.216003l0.180008,0.143997l0.108002,0.216003l0.180008,0.108002l0.251984,0.108002l0.180008,0.179993l0.180008,0.108002l0.251984,0.072006l0.180008,0.14399l0.216003,0.036003l0.179993,0.072006h0.251999h0.179993h0.252014h0.179993l0.180023,-0.072006l0.179962,-0.036003l0.180023,-0.14399l0.108002,-0.072006l0.108002,-0.108002l0.179993,-0.179993l0.071991,-0.108002l0.071991,-0.108002v-0.216003l0.036011,-0.143997v-0.216003l-0.036011,-0.143997v-0.215996l-0.071991,-0.144005l-0.071991,-0.216003l-0.036011,-0.143997l-0.143982,-0.215996l-0.108002,-0.144005l-0.108002,-0.216003l-0.180023,-0.107994l-0.143982,-0.18l-0.179993,-0.18l-0.216003,-0.107994l-0.179993,-0.072006l-0.252014,-0.108002l-0.179993,-0.071999l-0.251999,-0.036003l-0.180008,-0.071991h-0.216003l-0.179993,-0.072006l-0.179993,0.072006h-0.252014l-0.108002,0.071991l-0.179993,0.036003l-0.179993,0.071999l-0.144012,0.108002l-0.108002,0.072006l-0.071991,0.107994z" clip-rule="evenodd"/>
    <path fill-rule="evenodd" fill="#DBDB00" d="m253.432007,70.599998l-0.144012,0.18l-0.035995,0.143997l-0.072006,0.144005l-0.071991,0.215996v0.144005v0.216003l0.071991,0.14399l0.072006,0.216003l0.035995,0.144005l0.072006,0.215996l0.108002,0.143997l0.143997,0.216003l0.108002,0.144005l0.108002,0.143997l0.179993,0.18l0.180008,0.108002l0.179993,0.179993l0.180008,0.072006l0.251999,0.108002l0.180008,0.071991l0.251984,0.072006l0.180008,0.036003h0.215988h0.180008h0.251999h0.179993l0.179993,-0.036003l0.180023,-0.072006l0.179993,-0.071991l0.108002,-0.108002l0.143982,-0.072006l0.180023,-0.179993l0.036011,-0.108002l0.071991,-0.18v-0.143997l0.071991,-0.144005v-0.216003l-0.071991,-0.143997v-0.215996l-0.071991,-0.144005l-0.036011,-0.216003l-0.071991,-0.14399l-0.108032,-0.216003l-0.143982,-0.144005l-0.108002,-0.215996l-0.179993,-0.144005l-0.108002,-0.143997l-0.180023,-0.18l-0.251984,-0.107994l-0.180008,-0.144005l-0.251999,-0.036003l-0.179993,-0.107994l-0.216003,-0.071999l-0.179993,-0.071999h-0.251999h-0.179993h-0.180008h-0.251999l-0.108002,0.071999l-0.180008,0.071999l-0.179993,0.107994l-0.108002,0.036003l-0.143997,0.144005l-0.035995,0.107994z" clip-rule="evenodd"/>
   </g>
  </g>
 </g>
</svg>
