<svg width="24" height="24" xmlns="http://www.w3.org/2000/svg">
 <title>Lemon half</title>

 <g>
  <title>background</title>
  <rect fill="none" id="canvas_background" height="26" width="26" y="-1" x="-1"/>
 </g>
 <g>
  <title>Layer 1</title>
  <g stroke-opacity="0" stroke="null" id="Layer_1">
   <g stroke="null" id="svg_1">
    <path stroke="#000000" id="svg_2" clip-rule="evenodd" d="m12.522244,0.001433l-0.898446,-0.042008l-0.877385,0.05251l-0.877385,0.140727l-1.031804,0.287756l-1.015429,0.428482l-1.013086,0.550306l-1.041164,0.770848l-1.22834,1.113214l-1.176866,1.232937l-1.15113,1.398869l-0.753381,1.096412l-0.493676,0.915776l-0.442201,1.050202l-0.318199,1.190929l-0.168458,1.144719l0,0.41378l0.07019,0.665828l0.233969,0.909475l0.554509,1.863057l0.135702,0.722598l0.175477,2.12981l0.128683,0.961985l0.203553,0.735141l0.252687,0.514541l0.322878,0.447386l0.584924,0.560749l0.701909,0.472709l0.818892,0.392657l1.132411,0.413781l1.99576,0.575568l1.99576,0.46209l1.600351,0.264593l1.07158,0.105077l1.052861,0.027364l0.994435,-0.069372l1.188501,-0.21004l1.17927,-0.315061l1.158149,-0.420022l1.141708,-0.525101l1.130072,-0.623762l1.326605,-0.89273l0.846968,-0.682573l0.690212,-0.796111l0.479636,-0.785609l0.318202,-0.747627l0.226883,-0.821259l0.124002,-0.7415l0.070191,-1.146821l-0.030413,-1.04174l-0.135703,-1.232996l-0.196533,-1.03124l-0.299418,-1.050202l-0.566206,-1.447179l-0.926584,-1.905066l-1.518397,-2.705438l-0.615404,-0.846463l-0.474959,-0.508297l-0.713542,-0.594414l-1.022446,-0.682632l-1.364042,-0.735141l-1.560576,-0.763681" fill="#e64a19" fill-rule="evenodd"/>
    <path stroke="#000000" id="svg_3" clip-rule="evenodd" d="m2.42646,7.21212l0,-0.321362l0.08423,-0.447386l0.208232,-0.420081l0.446882,-0.508298l0.781458,-0.804455l1.013088,-0.98719l0.678511,-0.552406l0.273745,-0.130225l0.07019,0.042009l0,0.079815l-0.350954,0.665828l-1.314909,2.100404l-0.421144,0.82966l-0.15676,0.447386l-0.058493,0.26255l0.021057,0.340265l0.107625,0.315061l0.350955,0.478891l0.877385,0.764547l0.524092,0.462089l0.224611,0.296158l0.06785,0.298257l-0.07955,0.359168l-0.292462,0.596515l-0.346274,0.472591l-0.39073,0.373872l-0.322878,0.186877l-0.215252,0.050468l-0.194195,-0.063012l-0.222271,-0.260508l-0.369672,-0.789751l-0.488995,-1.503889l-0.369672,-1.575303l-0.135703,-0.940982l0,-0.117564l0,0z" fill="#e64a19" fill-rule="evenodd"/>
    <path stroke="#000000" id="svg_4" clip-rule="evenodd" d="m2.569183,20.312339l0.032756,0.216283l0.154419,0.26471l0.397749,0.359168l0.60598,0.367513l0.84931,0.373871l1.537179,0.544005l2.14316,0.623762l1.579292,0.357127l1.413177,0.2269l1.188565,0.115464l0.994371,0.016862l1.045841,-0.079873l0.837676,-0.157472l0.872707,-0.26255l0.701908,-0.321362l-1.614389,-0.46629l-1.532498,-0.560749l-1.111357,-0.478951l-0.739342,-0.438925l-1.764128,-1.241281l-0.505374,-0.256306l-0.350955,-0.086176l-0.233968,0.044109l-0.24333,0.235303l-0.252687,0.49978l-0.46092,1.434577l-0.135701,0.22906l-0.116986,0.035648l-0.124003,-0.117622l-0.168459,-0.331922l-0.357973,-1.276989l-0.488995,-1.995441l-0.322879,-0.856964l-0.545149,-1.121675l-0.430503,-0.642725l-0.327557,-0.3087l-0.233969,-0.094577l-0.175477,0l-0.329897,0.138686l-0.442202,0.35701l-0.552167,0.655326l-0.409447,0.640624l-0.23397,0.508239l-0.196534,0.682689l-0.077275,0.64704l0.007019,0.682573l0.116985,0.84022z" fill="#e64a19" fill-rule="evenodd"/>
    <path stroke="#81d4fa" id="svg_5" clip-rule="evenodd" d="m6.556022,12.813897l-0.184835,-0.99775l-0.147401,-1.503889l-0.07721,-1.867259l0.030416,-1.430374l0.098268,-1.155223l0.175476,-1.050202l0.292463,-1.008194l0.318198,-0.754045l0.31352,-0.489394l0.479635,-0.541904l0.552168,-0.420081l0.617679,-0.340265l0.903124,-0.361269l0.924177,-0.243647l0.772099,-0.096619l0.69021,-0.016803l0.596623,0.077715l0.722966,0.184836l1.429553,0.567109l1.169847,0.577611l0.91716,0.554507l0.748702,0.548205l0.772099,0.745701l0.807195,1.033399l0.935812,1.424074l1.11142,2.012186l0.807194,1.768539l0.467874,1.302251l0.304225,1.113214l0.163778,1.180426l0.018718,1.014556l-0.046793,0.964026l-0.15442,1.476642l-0.196536,1.077449l-0.22461,0.68899l-0.37903,0.684731l-0.479638,0.499898l-0.678446,0.495577l-0.779119,0.397035l-0.71354,0.252048l-0.828253,0.20374l-0.7604,0.104962l-0.69255,0.023104l-0.828253,-0.086059l-0.727581,-0.182793l-0.781457,-0.334023l-0.966293,-0.552348l-1.52782,-1.031298l-2.583024,-1.882078l-1.083278,-0.903116l-0.800176,-0.810755l-0.650435,-0.840162l-0.381371,-0.646925l-0.320536,-0.848505l-0.147596,-0.577552l0,0.000001z" fill="#81d4fa" fill-rule="evenodd"/>
    <path stroke="#000000" id="svg_6" clip-rule="evenodd" d="m13.69911,10.12538l-3.205382,-2.299942l-2.281202,-1.739134l-0.350954,-0.367571l-0.292462,-0.552406l-0.14506,-0.497796l-0.018717,-0.447386l0.077209,-0.375972l0.138042,-0.296157l0.416465,-0.537703l0.655115,-0.600716l0.456242,-0.325563l0.449221,-0.21004l0.252687,-0.05251l0.226948,0.027305l0.271405,0.15753l0.313519,0.386474l0.346277,0.672129l0.545147,1.340058l1.052863,2.667513l0.53813,1.66352l0.058426,0.216341l0.496082,1.172025l0,-0.000001z" fill="#e64a19" fill-rule="evenodd"/>
    <path stroke="#000000" id="svg_7" clip-rule="evenodd" d="m13.249887,7.745622l-0.46794,-1.590006l-0.456305,-1.241339l-1.111353,-2.218026l-0.15442,-0.525101l-0.0117,-0.260451l0.088909,-0.218441l0.215253,-0.21004l0.428163,-0.21004l0.545149,-0.115522l0.418805,0l0.350954,0.069313l0.486591,0.264651l0.428165,0.394876l0.285508,0.348667l-0.128684,-0.016803l0.205893,0.008402l0.514732,-0.035707l0.215318,0.035707l0.147401,0.086117l0.215318,0.36757l0.098265,0.449487l0,0.705736l-0.128748,1.375765l-0.320604,2.224327l-0.42108,2.375557l-0.234034,-0.094518l-0.163778,0.016803l-0.194195,0.123924l-0.851584,-2.110906z" fill="#e64a19" fill-rule="evenodd"/>
    <path stroke="#000000" id="svg_8" clip-rule="evenodd" d="m15.348593,9.669592l0.058426,-0.617519l0.437525,-1.961777l0.37669,-1.564801l0.292462,-1.451379l0.156758,-0.378073l0.116986,-0.113422l0.128682,-0.046209l0.222272,0.088216l0.42108,0.394877l0.701908,0.770848l0.837676,0.875868l0.360313,0.514599l0.224611,0.611218l0.067851,0.455787l-0.039775,0.342366l-0.156761,0.329763l-0.22227,0.279354l-0.584924,0.432683l-1.031806,0.57551l-1.22132,0.560808l-0.924179,0.357069l-0.116984,-0.016803l-0.077211,-0.123924l-0.028011,-0.315061l0.000001,0z" fill="#e64a19" fill-rule="evenodd"/>
    <path stroke="#000000" id="svg_9" clip-rule="evenodd" d="m15.844607,10.660983l0.201216,-0.138626l1.495063,-0.491496l2.164219,-1.077507l0.467938,-0.15753l0.252753,-0.035707l0.135703,0.088218l0.729919,1.25394l0.526497,1.13632l0.299416,0.98083l0.011763,0.298316l-0.077211,0.174333l-0.156759,0.086059l-0.252687,0l-0.631717,-0.149071l-1.656504,-0.497853l-2.613502,-0.630062l-0.566206,-0.220542l-0.350954,-0.252048l-0.065511,-0.174334l0.046794,-0.15753l0.039773,-0.035707l-0.000001,0z" fill="#e64a19" fill-rule="evenodd"/>
    <path stroke="#000000" id="svg_10" clip-rule="evenodd" d="m15.746342,11.467538l0.187174,0.023104l1.059882,0.413779l1.509103,0.61962l0.830591,0.2206l1.471732,0.26255l0.563868,0.174217l0.332172,0.210156l0.222335,0.281338l0.156695,0.373871l0.166183,0.640624l0.028075,0.57761l-0.028075,0.46209l-0.175478,0.829716l-0.175478,0.296041l-0.147399,0.071473l-0.116985,0l-0.339321,-0.113363l-0.683191,-0.411737l-0.935877,-0.730883l-0.760336,-0.770905l-0.924245,-1.008137l-0.818892,-0.655325l-0.643415,-0.525101l-0.720627,-0.83386l-0.156761,-0.279354l0,-0.094518l0.098268,-0.033607z" fill="#e64a19" fill-rule="evenodd"/>
    <path stroke="#000000" id="svg_11" clip-rule="evenodd" d="m12.950406,10.345922l-0.636398,-0.516699l-2.784234,-1.881962l-1.726696,-1.382066l-0.397748,-0.216342l-0.194195,-0.046208l-0.187176,0.081915l-0.116984,0.197438l-0.086569,0.525101l-0.011698,1.594207l0.098267,0.583912l0.187176,0.396976l0.252687,0.233145l0.416465,0.174334l0.676171,0.134426l1.148791,0.174333l1.977041,0.409579l0.729986,0.079815l0.526496,-0.05041l0.215253,-0.088216l0.058492,-0.105021l-0.039775,-0.15123l-0.105351,-0.147028z" fill="#e64a19" fill-rule="evenodd"/>
    <path stroke="#000000" id="svg_12" clip-rule="evenodd" d="m13.797374,11.782599l-0.163841,-0.029406l-0.168459,-0.027305l-0.163778,-0.025205l-0.168524,-0.023105l-0.170797,-0.025204l-0.170797,-0.025205l-0.173137,-0.021005l-0.175415,-0.021004l-0.177814,-0.016803l-0.180158,-0.016803l-0.182496,-0.018904l-0.187176,-0.014703l-0.187176,-0.012602l-0.191854,-0.014703l-0.191855,-0.014703l-0.194195,-0.008402l-0.203552,-0.014703l-0.210572,-0.021004l-0.222272,-0.027305l-0.222272,-0.033606l-0.229289,-0.029406l-0.229289,-0.035707l-0.23397,-0.027305l-0.231629,-0.025205l-0.229291,-0.021004l-0.22227,-0.008402l-0.217593,0l-0.210572,0.014704l-0.198874,0.031505l-0.191855,0.046208l-0.175478,0.067214l-0.159099,0.084016l-0.140382,0.10502l-0.105286,0.111321l-0.074871,0.119724l-0.042113,0.126024l-0.023398,0.132325l0,0.136526l0.014038,0.138685l0.032756,0.140727l0.046794,0.147028l0.049132,0.144928l0.063173,0.138568l0.063172,0.142886l0.058492,0.138568l0.058492,0.134484l0.053814,0.126024l0.042113,0.123865l0.035095,0.119781l0.039775,0.111321l0.039775,0.104962l0.046795,0.100878l0.042115,0.102919l0.051473,0.096621l0.053813,0.094459l0.058492,0.098777l0.063173,0.094461l0.07019,0.098775l0.07253,0.100762l0.08189,0.105078l0.086569,0.109163l0.098267,0.11348l0.100607,0.119665l0.112305,0.126024l0.121665,0.144928l0.14038,0.153388l0.147401,0.167974l0.16378,0.174334l0.173137,0.184836l0.175478,0.186876l0.182495,0.189038l0.182495,0.184835l0.187178,0.178593l0.180155,0.176374l0.180157,0.163891l0.170797,0.151228l0.16378,0.132326l0.152079,0.115523l0.140382,0.094577l0.128682,0.069313l0.109966,0.050351l0.095929,0.033606l0.091247,0.020946l0.08189,0.0042l0.072529,-0.008343l0.070191,-0.016862l0.063171,-0.031446l0.058494,-0.042067l0.058492,-0.056769l0.053811,-0.063013l0.051475,-0.071355l0.053813,-0.081916l0.056152,-0.090376l0.058428,-0.100878l0.060896,-0.104962l0.067852,-0.117622l0.065511,-0.121822l0.065511,-0.147088l0.067852,-0.157471l0.070192,-0.174334l0.065511,-0.184836l0.070192,-0.19738l0.065511,-0.201697l0.06785,-0.210041l0.065576,-0.21004l0.063171,-0.214241l0.060832,-0.210156l0.058492,-0.21004l0.056153,-0.20374l0.053813,-0.195339l0.051473,-0.184836l0.046796,-0.176374l0.037434,-0.15963l0.044454,-0.161675l0.035096,-0.157587l0.035093,-0.157473l0.035096,-0.151228l0.030415,-0.149188l0.028142,-0.147028l0.023333,-0.144928l0.023398,-0.140727l0.023396,-0.134484l0.014039,-0.138568l0.021055,-0.132326l0.014041,-0.128183l0.011696,-0.130108l0.009425,-0.121882l0.011632,-0.125849z" fill="#e64a19" fill-rule="evenodd"/>
    <path stroke="#000000" id="svg_13" clip-rule="evenodd" d="m14.148265,13.532177l-1.169847,4.223913l-0.07955,0.525101l0.021058,0.420139l0.116984,0.298198l0.381371,0.323521l0.837611,0.533445l0.924179,0.445343l0.664536,0.220484l0.563866,0.069314l0.643417,-0.016745l0.535789,-0.096619l0.283039,-0.123865l0.175478,-0.163889l0,-0.203739l-0.369673,-0.951542l-1.630768,-3.202998l-0.36499,-0.898974l-0.304162,-0.991391l-0.372011,-1.382123l-0.163844,-0.314944l-0.107627,-0.071471l-0.086503,0.035649l-0.285508,0.447386l-0.212847,0.87581z" fill="#e64a19" fill-rule="evenodd"/>
    <path stroke="#000000" id="svg_14" clip-rule="evenodd" d="m15.641055,12.902114l0.474957,1.592049l0.877387,2.131967l0.722965,1.522793l0.456305,0.745584l0.517007,0.602816l0.320604,0.245807l0.285443,0.096617l0.240989,0.008461l0.322877,-0.140728l0.547553,-0.472707l0.514733,-0.646925l0.212847,-0.35701l0.051475,-0.273052l-0.088843,-0.201697l-1.179272,-1.224536l-1.675219,-1.617252l-0.273745,-0.35917l-0.175412,-0.369671l-0.694891,-0.672129l-1.282153,-1.146821l-0.344,-0.367628l-0.046794,0.016804l0.009425,0.174275l0.205762,0.712153z" fill="#e64a19" fill-rule="evenodd"/>
   </g>
  </g>
  <path id="svg_75" d="m19.425036,7.782632" opacity="0.5" stroke-width="1.5" stroke="#000" fill="#fff"/>
  <path d="m12.864197,10.040126c0.10582,0.035273 0.393941,0.091174 0.670193,0.211639c0.289194,0.126108 0.661467,0.3649 0.95238,0.564373c0.274447,0.188183 0.4568,0.284311 0.670194,0.458553c0.174947,0.142849 0.288293,0.241719 0.31746,0.282187c0.046119,0.063986 0.105821,0.105821 0.141093,0.176367c0.035274,0.070547 0.070546,0.141093 0.070546,0.176367l0.035274,0.070547" id="svg_78" stroke-opacity="0" stroke-width="1.5" stroke="#000000" fill="none"/>
 </g>
</svg>