<svg width="24" height="24" xmlns="http://www.w3.org/2000/svg">
 <title>Lemon half</title>

 <g>
  <title>background</title>
  <rect fill="none" id="canvas_background" height="26" width="26" y="-1" x="-1"/>
 </g>
 <g>
  <title>Layer 1</title>
  <g stroke="null" id="Layer_1">
   <g stroke="null" id="svg_1">
    <path stroke="null" id="svg_2" clip-rule="evenodd" d="m12.520945,-0.020701l-0.90089,-0.041861l-0.879773,0.052327l-0.879773,0.140236l-1.034611,0.286751l-1.018192,0.426986l-1.015843,0.548384l-1.043997,0.768157l-1.231682,1.109327l-1.180068,1.228632l-1.154262,1.393985l-0.755431,1.092583l-0.495019,0.912579l-0.443404,1.046535l-0.319065,1.186771l-0.168916,1.140723l0,0.412335l0.070382,0.663503l0.234605,0.9063l0.556018,1.856553l0.136071,0.720075l0.175955,2.122374l0.129033,0.958626l0.204107,0.732575l0.253375,0.512744l0.323756,0.445824l0.586515,0.558791l0.703819,0.471058l0.82112,0.391287l1.135493,0.412335l2.00119,0.573559l2.00119,0.460477l1.604705,0.263669l1.074496,0.104711l1.055726,0.027268l0.99714,-0.069129l1.191735,-0.209307l1.182479,-0.313961l1.161301,-0.418556l1.144814,-0.523268l1.133147,-0.621584l1.330215,-0.889613l0.849273,-0.68019l0.69209,-0.793331l0.48094,-0.782867l0.319068,-0.745016l0.227501,-0.818392l0.124339,-0.738911l0.070382,-1.142817l-0.030496,-1.038104l-0.136073,-1.228691l-0.197068,-1.02764l-0.300233,-1.046535l-0.567747,-1.442126l-0.929104,-1.898415l-1.522529,-2.695992l-0.617078,-0.843507l-0.476252,-0.506523l-0.715483,-0.592338l-1.025228,-0.680249l-1.367753,-0.732575l-1.564822,-0.690713l-2.001187,-0.71583z" fill="#F7F619" fill-rule="evenodd"/>
    <path stroke="null" id="svg_3" clip-rule="evenodd" d="m2.397693,7.164811l0,-0.32024l0.084459,-0.445824l0.208799,-0.418614l0.448098,-0.506523l0.783584,-0.801646l1.015844,-0.983743l0.680357,-0.550478l0.27449,-0.12977l0.070381,0.041862l0,0.079536l-0.351908,0.663503l-1.318487,2.093071l-0.42229,0.826763l-0.157186,0.445824l-0.058652,0.261634l0.021115,0.339077l0.107918,0.313961l0.35191,0.47722l0.879773,0.761878l0.525518,0.460476l0.225222,0.295124l0.068035,0.297216l-0.079766,0.357914l-0.293258,0.594432l-0.347216,0.470941l-0.391793,0.372567l-0.323756,0.186225l-0.215838,0.050292l-0.194723,-0.062792l-0.222876,-0.259599l-0.370678,-0.786994l-0.490325,-1.498639l-0.370678,-1.569803l-0.136072,-0.937696l0,-0.117154l0,0z" fill="#F9F980" fill-rule="evenodd"/>
    <path stroke="null" id="svg_4" clip-rule="evenodd" d="m2.540804,20.219292l0.032845,0.215528l0.154839,0.263786l0.398831,0.357914l0.607629,0.36623l0.851621,0.372566l1.541361,0.542106l2.148991,0.621584l1.583589,0.35588l1.417022,0.226108l1.191799,0.115061l0.997077,0.016803l1.048687,-0.079594l0.839955,-0.156922l0.875081,-0.261634l0.703817,-0.32024l-1.618782,-0.464662l-1.536668,-0.558792l-1.114381,-0.477279l-0.741354,-0.437392l-1.768928,-1.236948l-0.506749,-0.255412l-0.35191,-0.085875l-0.234605,0.043955l-0.243992,0.234481l-0.253375,0.498035l-0.462175,1.429568l-0.13607,0.22826l-0.117304,0.035523l-0.124341,-0.117211l-0.168917,-0.330763l-0.358947,-1.272531l-0.490325,-1.988475l-0.323758,-0.853972l-0.546632,-1.117758l-0.431674,-0.640481l-0.328448,-0.307623l-0.234606,-0.094246l-0.175955,0l-0.330795,0.138201l-0.443405,0.355763l-0.55367,0.653038l-0.410561,0.638387l-0.234607,0.506465l-0.197069,0.680306l-0.077485,0.644781l0.007038,0.68019l0.117304,0.837286z" fill="#E8E800" fill-rule="evenodd"/>
    <path stroke="null" id="svg_5" clip-rule="evenodd" d="m6.53849,12.747031l-0.185338,-0.994267l-0.147802,-1.498639l-0.07742,-1.86074l0.030499,-1.42538l0.098535,-1.151189l0.175953,-1.046535l0.293259,-1.004674l0.319064,-0.751412l0.314373,-0.487685l0.48094,-0.540012l0.55367,-0.418614l0.61936,-0.339077l0.905581,-0.360008l0.926692,-0.242796l0.7742,-0.096281l0.692088,-0.016745l0.598247,0.077444l0.724933,0.18419l1.433443,0.565129l1.17303,0.575594l0.919656,0.552571l0.750739,0.546291l0.7742,0.743098l0.809391,1.029791l0.938358,1.419102l1.114444,2.005161l0.80939,1.762365l0.469147,1.297704l0.305053,1.109327l0.164224,1.176305l0.018768,1.011014l-0.04692,0.96066l-0.15484,1.471486l-0.19707,1.073688l-0.225221,0.686585l-0.380062,0.68234l-0.480943,0.498153l-0.680292,0.493847l-0.781239,0.395648l-0.715481,0.251168l-0.830507,0.203028l-0.762469,0.104596l-0.694434,0.023024l-0.830507,-0.085758l-0.72956,-0.182155l-0.783583,-0.332856l-0.968922,-0.55042l-1.531977,-1.027698l-2.590052,-1.875507l-1.086226,-0.899963l-0.802353,-0.807925l-0.652205,-0.837228l-0.382408,-0.644666l-0.321408,-0.845542l-0.147997,-0.575536l0,0.000001z" fill="#FFFFC7" fill-rule="evenodd"/>
    <path stroke="null" id="svg_6" clip-rule="evenodd" d="m13.701014,10.0679l-3.214103,-2.291912l-2.287409,-1.733062l-0.351909,-0.366287l-0.293258,-0.550478l-0.145455,-0.496058l-0.018768,-0.445824l0.077419,-0.37466l0.138418,-0.295123l0.417598,-0.535826l0.656898,-0.598618l0.457483,-0.324426l0.450443,-0.209307l0.253375,-0.052327l0.227566,0.02721l0.272143,0.15698l0.314372,0.385125l0.34722,0.669783l0.54663,1.335379l1.055728,2.6582l0.539594,1.657712l0.058585,0.215586l0.497432,1.167933l0,-0.000001z" fill="#F7F619" fill-rule="evenodd"/>
    <path stroke="null" id="svg_7" clip-rule="evenodd" d="m13.250569,7.696451l-0.469213,-1.584454l-0.457547,-1.237005l-1.114377,-2.210282l-0.154841,-0.523268l-0.011732,-0.259541l0.089151,-0.217679l0.215838,-0.209307l0.429328,-0.209307l0.546632,-0.115119l0.419945,0l0.351909,0.069071l0.487915,0.263727l0.42933,0.393497l0.286285,0.34745l-0.129035,-0.016745l0.206453,0.008372l0.516133,-0.035582l0.215904,0.035582l0.147802,0.085816l0.215904,0.366287l0.098532,0.447918l0,0.703272l-0.129098,1.370961l-0.321476,2.216561l-0.422226,2.367263l-0.234671,-0.094188l-0.164224,0.016744l-0.194723,0.123492l-0.853901,-2.103536z" fill="#F7F619" fill-rule="evenodd"/>
    <path stroke="null" id="svg_8" clip-rule="evenodd" d="m15.354985,9.613703l0.058585,-0.615363l0.438715,-1.954927l0.377715,-1.559338l0.293258,-1.446312l0.157185,-0.376753l0.117304,-0.113026l0.129032,-0.046048l0.222877,0.087908l0.422226,0.393498l0.703817,0.768157l0.839955,0.87281l0.361293,0.512802l0.225222,0.609084l0.068036,0.454196l-0.039883,0.341171l-0.157187,0.328612l-0.222874,0.278379l-0.586515,0.431173l-1.034613,0.573501l-1.224643,0.55885l-0.926694,0.355822l-0.117302,-0.016744l-0.077421,-0.123492l-0.028088,-0.313961l0.000001,0z" fill="#F7F619" fill-rule="evenodd"/>
    <path stroke="null" id="svg_9" clip-rule="evenodd" d="m15.852348,10.601633l0.201764,-0.138142l1.499131,-0.48978l2.170107,-1.073745l0.469211,-0.15698l0.25344,-0.035582l0.136072,0.08791l0.731905,1.249562l0.527929,1.132352l0.300231,0.977405l0.011795,0.297274l-0.077421,0.173724l-0.157185,0.085758l-0.253375,0l-0.633436,-0.14855l-1.661011,-0.496115l-2.620613,-0.627862l-0.567747,-0.219772l-0.351909,-0.251168l-0.065689,-0.173725l0.046921,-0.15698l0.039881,-0.035583l-0.000001,0z" fill="#F7F619" fill-rule="evenodd"/>
    <path stroke="null" id="svg_10" clip-rule="evenodd" d="m15.753816,11.405372l0.187684,0.023024l1.062766,0.412334l1.513209,0.617456l0.832851,0.21983l1.475736,0.261634l0.565402,0.173609l0.333075,0.209423l0.22294,0.280356l0.157122,0.372566l0.166635,0.638387l0.028151,0.575594l-0.028151,0.460477l-0.175955,0.826819l-0.175955,0.295007l-0.1478,0.071223l-0.117304,0l-0.340245,-0.112968l-0.68505,-0.4103l-0.938423,-0.728331l-0.762404,-0.768214l-0.92676,-1.004617l-0.82112,-0.653037l-0.645166,-0.523268l-0.722587,-0.830949l-0.157187,-0.278378l0,-0.094188l0.098536,-0.03349z" fill="#F7F619" fill-rule="evenodd"/>
    <path stroke="null" id="svg_11" clip-rule="evenodd" d="m12.950273,10.287672l-0.63813,-0.514895l-2.79181,-1.875391l-1.731394,-1.37724l-0.39883,-0.215587l-0.194723,-0.046047l-0.187685,0.081629l-0.117302,0.196749l-0.086804,0.523268l-0.01173,1.588641l0.098534,0.581874l0.187685,0.39559l0.253375,0.232331l0.417598,0.173725l0.678011,0.133957l1.151917,0.173724l1.98242,0.408149l0.731972,0.079537l0.527928,-0.050234l0.215838,-0.087908l0.058651,-0.104654l-0.039883,-0.150702l-0.105638,-0.146514z" fill="#F7F619" fill-rule="evenodd"/>
    <path stroke="null" id="svg_12" clip-rule="evenodd" d="m13.799546,11.719332l-0.164287,-0.029303l-0.168917,-0.02721l-0.164224,-0.025117l-0.168983,-0.023024l-0.171262,-0.025116l-0.171262,-0.025117l-0.173608,-0.020931l-0.175892,-0.020931l-0.178298,-0.016744l-0.180649,-0.016745l-0.182992,-0.018838l-0.187685,-0.014651l-0.187685,-0.012558l-0.192376,-0.014651l-0.192377,-0.014651l-0.194724,-0.008372l-0.204106,-0.014651l-0.211145,-0.020931l-0.222877,-0.02721l-0.222876,-0.033489l-0.229913,-0.029303l-0.229913,-0.035582l-0.234607,-0.02721l-0.232259,-0.025117l-0.229915,-0.020931l-0.222874,-0.008373l-0.218185,0l-0.211145,0.014653l-0.199415,0.031395l-0.192377,0.046047l-0.175955,0.066979l-0.159532,0.083723l-0.140764,0.104654l-0.105572,0.110932l-0.075075,0.119306l-0.042228,0.125584l-0.023462,0.131863l0,0.13605l0.014076,0.138201l0.032845,0.140236l0.046921,0.146514l0.049266,0.144422l0.063345,0.138085l0.063344,0.142388l0.058652,0.138085l0.058651,0.134014l0.05396,0.125584l0.042228,0.123433l0.035191,0.119363l0.039883,0.110932l0.039883,0.104596l0.046922,0.100526l0.04223,0.102559l0.051613,0.096284l0.053959,0.094129l0.058651,0.098432l0.063345,0.094131l0.070381,0.09843l0.072727,0.10041l0.082113,0.104711l0.086804,0.108782l0.098535,0.113084l0.100881,0.119247l0.112611,0.125584l0.121996,0.144422l0.140762,0.152852l0.147802,0.167388l0.164226,0.173725l0.173608,0.18419l0.175955,0.186223l0.182991,0.188378l0.182991,0.18419l0.187687,0.17797l0.180645,0.175759l0.180647,0.163319l0.171262,0.1507l0.164226,0.131864l0.152493,0.115119l0.140764,0.094246l0.129032,0.069071l0.110265,0.050176l0.09619,0.033489l0.091496,0.020873l0.082113,0.004186l0.072726,-0.008314l0.070382,-0.016803l0.063343,-0.031336l0.058653,-0.04192l0.058652,-0.05657l0.053957,-0.062793l0.051615,-0.071106l0.053959,-0.08163l0.056305,-0.090061l0.058587,-0.100526l0.061061,-0.104596l0.068036,-0.117211l0.06569,-0.121397l0.065689,-0.146575l0.068036,-0.156921l0.070383,-0.173725l0.065689,-0.18419l0.070383,-0.19669l0.065689,-0.200993l0.068034,-0.209308l0.065755,-0.209307l0.063343,-0.213493l0.060998,-0.209423l0.058652,-0.209307l0.056306,-0.203028l0.053959,-0.194657l0.051613,-0.18419l0.046923,-0.175759l0.037536,-0.159073l0.044574,-0.16111l0.035192,-0.157037l0.035189,-0.156923l0.035192,-0.150701l0.030498,-0.148667l0.028219,-0.146515l0.023396,-0.144422l0.023462,-0.140236l0.023459,-0.134014l0.014077,-0.138085l0.021113,-0.131864l0.014079,-0.127735l0.011728,-0.129654l0.009451,-0.121457l0.011664,-0.125409z" fill="#F7F619" fill-rule="evenodd"/>
    <path stroke="null" id="svg_13" clip-rule="evenodd" d="m14.151391,13.462802l-1.17303,4.209166l-0.079766,0.523268l0.021115,0.418672l0.117302,0.297157l0.382408,0.322392l0.83989,0.531582l0.926694,0.443789l0.666344,0.219714l0.565401,0.069072l0.645168,-0.016687l0.537247,-0.096282l0.283809,-0.123432l0.175955,-0.163317l0,-0.203028l-0.370679,-0.94822l-1.635205,-3.191815l-0.365983,-0.895835l-0.30499,-0.987929l-0.373023,-1.377298l-0.164289,-0.313845l-0.107919,-0.071222l-0.086738,0.035524l-0.286285,0.445824l-0.213426,0.872752z" fill="#F7F619" fill-rule="evenodd"/>
    <path stroke="null" id="svg_14" clip-rule="evenodd" d="m15.648242,12.834939l0.476249,1.586491l0.879775,2.124524l0.724932,1.517477l0.457547,0.742981l0.518414,0.600711l0.321476,0.244949l0.286219,0.09628l0.241645,0.008432l0.323755,-0.140237l0.549043,-0.471057l0.516134,-0.644666l0.213426,-0.355763l0.051615,-0.272099l-0.089085,-0.200993l-1.182481,-1.220261l-1.679777,-1.611606l-0.27449,-0.357916l-0.175889,-0.36838l-0.696781,-0.669783l-1.285641,-1.142817l-0.344936,-0.366345l-0.046921,0.016745l0.009451,0.173667l0.206322,0.709667z" fill="#F7F619" fill-rule="evenodd"/>
    <path stroke="null" id="svg_15" clip-rule="evenodd" d="m16.908077,14.796146l-0.021115,0.016686l0.098536,0.383033l0.39883,0.941941l0.462173,0.77432l0.76247,1.023569l0.09619,0.075293l0,-0.075293l-0.293258,-0.820541l-0.42933,-0.866532l-0.586515,-0.879031l-0.480942,-0.573444l-0.007038,0l0,0z" fill="#FFFFC7" fill-rule="evenodd"/>
    <path stroke="null" id="svg_16" clip-rule="evenodd" d="m18.498641,15.865648l0.363639,0.332855l0.907991,1.063338l0.253375,0.401871l-0.01877,0.138085l-0.126685,0.087908l-0.166572,0.016803l-0.234605,-0.094246l-0.222876,-0.295122l-0.50916,-0.977406l-0.234607,-0.569373l-0.018768,-0.104712l0.007038,0l0,0l0,0.000001z" fill="#FFFFC7" fill-rule="evenodd"/>
    <path stroke="null" id="svg_17" clip-rule="evenodd" d="m17.553243,12.788833l-0.01173,0l0.753085,0.523268l0.724932,0.778681l0.281528,0.303552l-0.145456,-0.34954l-0.370679,-0.546293l-0.42229,-0.326576l-0.78352,-0.372451l-0.025872,-0.01064z" fill="#FFFFC7" fill-rule="evenodd"/>
    <path stroke="null" id="svg_18" clip-rule="evenodd" d="m19.007801,13.008664l1.360715,0.506465l0.722587,0.320239l-0.01877,0.018838l-0.234605,-0.008313l-0.586515,-0.131981l-0.656898,-0.313844l-0.586515,-0.366346l-0.021115,-0.035523l0.021115,0.010465z" fill="#FFFFC7" fill-rule="evenodd"/>
    <path stroke="null" id="svg_19" clip-rule="evenodd" d="m17.649432,10.241625l0.086804,-0.03349l0.01173,0.010466l0.281527,-0.035582l2.493863,-0.696993l0.046921,0.00628l-0.457483,0.255354l-1.027638,0.418615l-1.356024,0.372566l-0.373023,0.062792l-0.049267,-0.052327l0.225156,-0.236517l0.117433,-0.071164z" fill="#FFFFC7" fill-rule="evenodd"/>
    <path stroke="null" id="svg_20" clip-rule="evenodd" d="m19.103924,11.317463l0.598311,0.110932l1.794737,0.209307l0.058586,-0.006279l-1.051034,-0.261634l-0.989973,-0.192562l-0.272208,0l-0.164224,0.069072l0,0.054419l0.025806,0.016745z" fill="#FFFFC7" fill-rule="evenodd"/>
    <path stroke="null" id="svg_21" clip-rule="evenodd" d="m16.204194,8.99834l0.330794,-0.150701l1.114444,-0.663503l1.435724,-1.11142l0.215902,-0.221865l-0.046921,0l-0.802417,0.40187l-1.107341,0.653037l-0.750741,0.644666l-0.389511,0.412335l0,0.035582l0.000066,0l0,-0.000001z" fill="#FFFFC7" fill-rule="evenodd"/>
    <path stroke="null" id="svg_22" clip-rule="evenodd" d="m17.553243,6.808989l0.670975,-0.602804l0.117368,-0.16326l-0.164289,0.041861l-0.624053,0.324426l-0.110198,0.121399l-0.028219,0.165352l0.068036,0.113026l0.070381,0l0,0z" fill="#FFFFC7" fill-rule="evenodd"/>
    <path stroke="null" id="svg_23" clip-rule="evenodd" d="m14.698087,3.635894l0.039819,0.862345l0,1.318634l-0.068036,1.088397l-0.01877,0.079537l-0.070315,-0.366288l-0.086804,-1.324914l0.086804,-1.082118l0.110198,-0.58606l0.007104,0.010465z" fill="#FFFFC7" fill-rule="evenodd"/>
    <path stroke="null" id="svg_24" clip-rule="evenodd" d="m12.696899,2.386331l0.330796,1.387706l0.222874,1.205609l-0.037538,0.023024l-0.23467,-0.408149l-0.281462,-0.74304l-0.070383,-0.663503l0,-0.644666l0.049269,-0.180004l0.021115,0.023024z" fill="#FFFFC7" fill-rule="evenodd"/>
    <path stroke="null" id="svg_25" clip-rule="evenodd" d="m13.250569,5.693382l-0.007038,0.006279l0.300296,1.327007l0.443407,1.645153l0.007038,0.012558l-0.262759,-1.611664l-0.206455,-0.778622l-0.262757,-0.594432l-0.01173,-0.006279z" fill="#FFFFC7" fill-rule="evenodd"/>
    <path stroke="null" id="svg_26" clip-rule="evenodd" d="m11.092194,4.839409l0.567745,1.412823l0.626398,1.846088l0.037473,0.259541l-0.518479,-0.990022l-0.60763,-1.412823l-0.154841,-0.619549l-0.028086,-0.479313l0.028151,-0.062792l0.049268,0.046048z" fill="#FFFFC7" fill-rule="evenodd"/>
    <path stroke="null" id="svg_27" clip-rule="evenodd" d="m8.746134,5.065461l0.879773,0.914672l0.333141,0.288843l-0.00704,-0.052326l-0.333141,-0.533733l-0.246334,-0.278378l-0.497366,-0.332798l-0.13607,-0.041861l0.007038,0.035582z" fill="#FFFFC7" fill-rule="evenodd"/>
    <path stroke="null" id="svg_28" clip-rule="evenodd" d="m8.99247,3.409842l0.419945,0.615363l0.13607,0.117212l0.039885,-0.05442l-0.021117,-0.148608l-0.39883,-0.408149l-0.175953,-0.133957l0,0.012558l0,0z" fill="#FFFFC7" fill-rule="evenodd"/>
    <path stroke="null" id="svg_29" clip-rule="evenodd" d="m9.442912,3.187977l0.645167,0.837228l0.234606,0.244889l0,-0.094188l-0.187685,-0.40187l-0.321409,-0.330705l-0.370679,-0.2721l0,0.016745l0,0l0,0.000001z" fill="#FFFFC7" fill-rule="evenodd"/>
    <path stroke="null" id="svg_30" clip-rule="evenodd" d="m10.944392,9.439979l-1.56013,-0.696993l-0.194724,-0.025116l-0.098534,0.087909l0.039883,0.138143l0.222874,0.165353l0.891505,0.272099l1.550745,0.372566l0.009383,0l-0.861003,-0.31396z" fill="#FFFFC7" fill-rule="evenodd"/>
    <path stroke="null" id="svg_31" clip-rule="evenodd" d="m7.78894,9.486026l1.564822,0.320239l0.753087,0.115119l-0.506751,-0.219772l-0.900885,-0.261634l-0.42933,-0.041861l-0.450442,0.018838l-0.077421,0.041861l0.046921,0.02721z" fill="#FFFFC7" fill-rule="evenodd"/>
    <path stroke="null" id="svg_32" clip-rule="evenodd" d="m8.192463,11.805148l0.605283,0.00628l2.40002,0.159015l0.187685,0.04407l-0.09619,0.060642l-0.527862,0.079478l-0.469213,0l-1.278605,-0.17576l-0.82112,-0.167388l-0.011732,-0.006279l0.011732,0l0,-0.000058l0.000001,-0.000001z" fill="#FFFFC7" fill-rule="evenodd"/>
    <path stroke="null" id="svg_33" clip-rule="evenodd" d="m11.699822,12.389115l-0.091496,0l-1.66805,0.567222l-1.219949,0.383032l-0.01173,0.035524l0.558362,-0.010465l0.7437,-0.094129l0.377715,-0.098433l0.60763,-0.295007l0.670975,-0.460475l0.032843,-0.027268z" fill="#FFFFC7" fill-rule="evenodd"/>
    <path stroke="null" id="svg_34" clip-rule="evenodd" d="m12.997128,12.876858l-0.039817,0.621584l-0.222876,1.523697l-0.136136,0.592397l-0.227503,0.460477l-0.183059,0.228144l-0.089149,0.016688l-0.021049,-0.251169l0.128969,-0.931416l0.351908,-1.23276l0.361294,-0.94822l0.070381,-0.085874l0.007038,0.006454l-0.000001,0z" fill="#FFFFC7" fill-rule="evenodd"/>
    <path stroke="null" id="svg_35" clip-rule="evenodd" d="m14.299256,15.555989l-0.215902,1.123863l-0.194658,1.410845l0.03982,0.060641l0.13607,-0.228145l0.105572,-0.460474l0.129035,-1.674515l0,-0.242797l0,0.010582l0.000063,0z" fill="#FFFFC7" fill-rule="evenodd"/>
    <path stroke="null" id="svg_36" clip-rule="evenodd" d="m14.855274,14.708296l0.011732,0.288784l0.154839,0.956591l0.175955,0.586061l0.340177,0.644665l0.527864,0.72211l0.086804,0.062792l-0.28146,-0.743099l-0.626398,-1.488171l-0.377718,-1.029733l-0.01173,-0.00843l0,0.00843l-0.000066,0l0.000001,0z" fill="#FFFFC7" fill-rule="evenodd"/>
    <path stroke="null" id="svg_37" clip-rule="evenodd" d="m2.045785,15.336158l-0.168916,0l-0.358948,0.18419l-0.01173,0.04192l0.304987,0.098315l0.058652,0.136051l0.037538,0.261634l0.086804,0.016803l0.265104,-0.121399l0.086804,-0.104711l-0.058651,-0.207214l-0.164225,-0.253204l-0.07742,-0.052385z" fill="#F9F980" fill-rule="evenodd"/>
    <path stroke="null" id="svg_38" clip-rule="evenodd" d="m2.188894,15.24197l-0.124342,-0.010465l-0.351908,0.1507l-0.058652,0.075293l0.300296,0.104712l0.058651,0.140235l0.051613,0.261634l0.098535,0.016687l0.281527,-0.138085l0.058652,-0.117328l-0.098535,-0.257448l-0.194722,-0.219714l-0.021115,-0.006221z" fill="#DBDB00" fill-rule="evenodd"/>
    <path stroke="null" id="svg_39" clip-rule="evenodd" d="m2.083322,9.492305l-0.15484,0l-0.333141,0.167446l-0.01173,0.041861l0.293258,0.104654l0.058652,0.209306l0.030499,0.140236l0.086804,0.02721l0.234607,-0.104654l0.077419,-0.131864l-0.117302,-0.278378l-0.154841,-0.175818l-0.009384,0l0,0z" fill="#F9F980" fill-rule="evenodd"/>
    <path stroke="null" id="svg_40" clip-rule="evenodd" d="m2.228777,9.398117l-0.136071,0l-0.361293,0.173724l-0.011731,0.041861l0.286219,0.08791l0.058651,0.140236l0.039883,0.226052l0.084459,0.018838l0.234606,-0.104653l0.091496,-0.129771l-0.098535,-0.261634l-0.175954,-0.192562l-0.011731,0l0,0z" fill="#DBDB00" fill-rule="evenodd"/>
    <path stroke="null" id="svg_41" clip-rule="evenodd" d="m3.589492,19.197816l-0.117303,-0.018838l-0.363639,0.123549l-0.253375,0.173725l0.030499,0.035523l0.370678,0.115119l0.086804,0.156923l0.051613,0.35588l0.07742,0.062792l0.157186,-0.027268l0.281528,-0.146514l0.096188,-0.150702l-0.084459,-0.286866l-0.246336,-0.341112l-0.086804,-0.052211z" fill="#F9F980" fill-rule="evenodd"/>
    <path stroke="null" id="svg_42" clip-rule="evenodd" d="m3.7936,19.068045l-0.117304,-0.016686l-0.419945,0.146514l-0.206453,0.157038l0.070382,0.045991l0.312025,0.075408l0.098534,0.104595l0.077421,0.435359l0.086804,0.046106l0.194724,-0.052326l0.246336,-0.148667l0.068036,-0.140235l-0.098535,-0.297216l-0.222876,-0.303553l-0.08915,-0.052327z" fill="#DBDB00" fill-rule="evenodd"/>
    <path stroke="null" id="svg_43" clip-rule="evenodd" d="m4.70387,10.486514l-0.110264,0l-0.241645,0.131863l-0.01173,0.018838l0.215837,0.069071l0.049267,0.209308l0.028153,0.052326l0.187685,-0.062792l0.077419,-0.094188l-0.117303,-0.261634l-0.077421,-0.062792z" fill="#F9F980" fill-rule="evenodd"/>
    <path stroke="null" id="svg_44" clip-rule="evenodd" d="m4.802406,10.427908l-0.110265,0l-0.241645,0.127677l-0.01173,0.018838l0.213491,0.069072l0.051613,0.209306l0.028153,0.052327l0.206453,-0.077444l0.058651,-0.085815l-0.110264,-0.24489l-0.084459,-0.069071z" fill="#DBDB00" fill-rule="evenodd"/>
    <path stroke="null" id="svg_45" clip-rule="evenodd" d="m4.098588,13.217971l-0.01173,0.00843l0.265104,0.27832l0.124341,0.062793l0.150148,-0.104712l0.037538,-0.104595l-0.16657,-0.087908l-0.361294,-0.062792l-0.037537,0.010465z" fill="#F9F980" fill-rule="evenodd"/>
    <path stroke="null" id="svg_46" clip-rule="evenodd" d="m4.183046,13.171865l-0.007038,0.012616l0.262759,0.278437l0.129033,0.058607l0.143109,-0.104712l0.039883,-0.104712l-0.164223,-0.085758l-0.36364,-0.060757l-0.039883,0.006279z" fill="#DBDB00" fill-rule="evenodd"/>
    <path stroke="null" id="svg_47" clip-rule="evenodd" d="m7.338497,19.128804l-0.007038,0.008429l0.253375,0.280472l0.126687,0.058606l0.154841,-0.104712l0.039883,-0.104711l-0.164226,-0.087909l-0.363639,-0.058607l-0.039883,0.008432z" fill="#F9F980" fill-rule="evenodd"/>
    <path stroke="null" id="svg_48" clip-rule="evenodd" d="m7.429993,19.086883l-0.01173,0.006338l0.265104,0.278319l0.124341,0.062793l0.150149,-0.104711l0.037536,-0.104597l-0.166568,-0.087908l-0.361294,-0.062793l-0.037538,0.012559z" fill="#DBDB00" fill-rule="evenodd"/>
    <path stroke="null" id="svg_49" clip-rule="evenodd" d="m9.705672,20.288306l-0.009385,0.00843l0.19707,0.261634l0.351909,0.288901l0.096187,0.025117l0.204109,-0.123549l0.110264,-0.209308l-0.091496,-0.085873l-0.605283,-0.165352l-0.253375,-0.008315l0,0.008315l0,0z" fill="#F9F980" fill-rule="evenodd"/>
    <path stroke="null" id="svg_50" clip-rule="evenodd" d="m9.853474,20.219292l-0.01173,0.00622l0.175953,0.244948l0.382408,0.307623l0.098535,0.025234l0.182993,-0.113085l0.126685,-0.200877l-0.046919,-0.09628l-0.537249,-0.154887l-0.363641,-0.035525l-0.007036,0.016629z" fill="#DBDB00" fill-rule="evenodd"/>
    <path stroke="null" id="svg_51" clip-rule="evenodd" d="m4.398883,17.184397l-0.007038,0.006221l0.14311,0.221866l0.403522,0.330704l0.098534,0.025117l0.182994,-0.112967l0.124341,-0.219831l-0.06569,-0.085815l-0.556016,-0.159073l-0.312027,-0.023024l-0.01173,0.016801z" fill="#F9F980" fill-rule="evenodd"/>
    <path stroke="null" id="svg_52" clip-rule="evenodd" d="m4.546685,17.104745l-0.01173,0.010465l0.227568,0.297275l0.370678,0.278321l0.098534,0l0.192376,-0.156922l0.077421,-0.175875l-0.086804,-0.085758l-0.457482,-0.140237l-0.401176,-0.046106l-0.009384,0.018838l-0.000001,0z" fill="#DBDB00" fill-rule="evenodd"/>
    <path stroke="null" id="svg_53" clip-rule="evenodd" d="m9.039391,19.051359l-0.00704,0.006221l0.253376,0.280471l0.126687,0.062792l0.154838,-0.104711l0.039883,-0.104595l-0.164223,-0.08791l-0.363639,-0.062792l-0.039883,0.010523z" fill="#F9F980" fill-rule="evenodd"/>
    <path stroke="null" id="svg_54" clip-rule="evenodd" d="m9.130887,19.005254l-0.01173,0.010582l0.265104,0.286751l0.124342,0.062792l0.129032,-0.098432l0.058651,-0.121399l-0.107917,-0.058606l-0.419947,-0.098317l-0.037536,0.016629z" fill="#DBDB00" fill-rule="evenodd"/>
    <path stroke="null" id="svg_55" clip-rule="evenodd" d="m6.256964,15.917974l-0.009385,0.010465l-0.002346,0.010582l-0.004691,0.008314l0,0.00843l0,0.012617l0,0.008315l0,0.012615l0.004691,0.008432l0.002346,0.0125l0.009385,0.00843l0.002345,0.012617l0.009384,0.008315l0.011731,0.012615l0.007038,0.008432l0.01173,0.008314l0.016422,0.006336l0.01173,0.010465l0.01173,0.008432l0.014077,0.002036l0.01173,0.00622l0.016422,0.004186l0.011731,0.004186l0.016421,0l0.011731,0l0.014076,0l0.011731,0l0.01173,-0.004186l0.01173,-0.004186l0.01173,-0.00622l0.009384,-0.002036l0.007038,-0.008432l0.01173,-0.010465l0.004692,-0.006336l0.002346,-0.008314l0,-0.008432l0.004692,-0.012615l0,-0.008315l-0.004692,-0.012617l0,-0.012615l-0.002346,-0.010467l-0.004692,-0.010465l-0.004692,-0.014651l-0.007038,-0.010467l-0.007038,-0.010465l-0.009384,-0.010465l-0.01173,-0.010582l-0.007039,-0.006221l-0.01173,-0.010465l-0.016422,-0.006223l-0.01173,-0.00843l-0.014078,-0.004186l-0.01173,-0.002035l-0.016422,-0.004186l-0.016422,-0.002152l-0.01173,0l-0.011731,0l-0.014077,0.002152l-0.01173,0l-0.011731,0.004186l-0.01173,0.002035l-0.01173,0.00843l-0.009385,0.004186l-0.007039,0.006223l-0.007037,0.006162z" fill="#F9F980" fill-rule="evenodd"/>
    <path stroke="null" id="svg_56" clip-rule="evenodd" d="m6.282769,15.876228l-0.007038,0.010465l-0.007038,0.006221l-0.004692,0.012617l0,0.008314l-0.004691,0.012617l0,0.00843l0.004691,0.0125l0.004692,0.00843l0.002346,0.012617l0.004692,0.008314l0.004693,0.012615l0.007038,0.008432l0.01173,0.0125l0.007039,0.006338l0.01173,0.010465l0.016422,0.006221l0.011731,0.010465l0.01173,0.004187l0.016422,0.006221l0.011731,0.004186l0.014076,0.002152l0.01173,0.004069l0.016422,0l0.011731,0l0.016422,0l0.01173,0l0.011731,-0.004069l0.01173,-0.002152l0.01173,-0.004186l0.007039,-0.006221l0.007038,-0.004187l0.011731,-0.010465l0.004692,-0.006221l0.004691,-0.010465l0,-0.010582l0.002346,-0.010465l0,-0.010467l-0.002346,-0.010465l0,-0.010465l-0.004691,-0.014653l-0.004692,-0.010465l-0.002346,-0.010582l-0.009385,-0.010465l-0.007038,-0.010465l-0.007038,-0.010465l-0.01173,-0.010467l-0.009384,-0.010465l-0.011731,-0.010582l-0.014076,-0.00622l-0.011731,-0.004186l-0.016422,-0.006221l-0.01173,-0.004187l-0.016422,-0.002033l-0.011731,0l-0.014076,0l-0.01173,0l-0.011731,0l-0.016422,0.002035l-0.007038,0.004186l-0.01173,0.002036l-0.01173,0.004187l-0.009384,0.00843l-0.007038,0.00622l-0.004693,0.006395z" fill="#DBDB00" fill-rule="evenodd"/>
    <path stroke="null" id="svg_57" clip-rule="evenodd" d="m4.438766,7.072716l-0.009384,0.008372l-0.002345,0.008373l0,0.010465l0,0.010466l-0.004693,0.010465l0.004693,0.010465l0,0.010466l0.002345,0.010465l0.004693,0.010465l0.004691,0.010465l0.007038,0.010465l0.007038,0.010465l0.009384,0.010466l0.011731,0.006279l0.007038,0.010465l0.016422,0.006279l0.01173,0.012559l0.011731,0.002092l0.014076,0.006279l0.011731,0.004187l0.016421,0.004186l0.011731,0.004186l0.016422,0l0.011731,0l0.01173,0l0.014076,0l0.009384,-0.004186l0.01173,-0.004186l0.011731,-0.004187l0.007038,-0.006279l0.007038,-0.002092l0.009384,-0.012559l0.002347,-0.006279l0.009384,-0.010465l0.002345,-0.006279l0,-0.010466l0.004691,-0.010465l0,-0.010465l-0.004691,-0.010465l0,-0.010465l-0.007038,-0.010465l-0.004691,-0.010466l-0.002347,-0.010465l-0.009384,-0.010465l-0.01173,-0.010466l-0.007038,-0.010465l-0.011731,-0.008373l-0.01173,-0.008372l-0.016424,-0.008372l-0.01173,-0.006279l-0.014076,-0.004186l-0.01173,-0.00628l-0.016423,-0.004186l-0.01173,-0.004186l-0.016422,0l-0.011731,0l-0.014076,0l-0.01173,0l-0.011731,0.004186l-0.01173,0.004186l-0.011731,0.00628l-0.009384,0.004186l-0.007038,0.006279l-0.007038,0.008372z" fill="#F9F980" fill-rule="evenodd"/>
    <path stroke="null" id="svg_58" clip-rule="evenodd" d="m4.469265,7.026669l-0.007038,0.010465l-0.009384,0.010465l-0.002347,0.00628l0,0.010465l-0.004691,0.010466l0,0.010465l0.004691,0.010465l0,0.010465l0.002347,0.010466l0.009384,0.010465l0.002346,0.010465l0.009385,0.010465l0.007038,0.010466l0.01173,0.010466l0.007038,0.008372l0.016422,0.00628l0.011731,0.010465l0.01173,0.006279l0.016422,0.004187l0.014076,0.006279l0.011731,0.004186l0.016422,0.004187l0.01173,0l0.016424,0l0.01173,0l0.01173,0l0.011731,-0.004187l0.01173,-0.004186l0.011731,-0.006279l0.007038,-0.004187l0.007038,-0.006279l0.01173,-0.010465l0.004692,-0.00628l0.004693,-0.008372l0.002345,-0.010466l0,-0.010466l0,-0.010465l0,-0.010465l0,-0.010465l-0.002345,-0.010466l-0.004693,-0.010465l-0.007038,-0.010465l-0.004693,-0.010465l-0.007037,-0.010466l-0.011731,-0.010465l-0.009384,-0.00628l-0.01173,-0.010465l-0.011731,-0.010465l-0.014076,-0.008373l-0.01173,-0.002092l-0.016424,-0.006279l-0.01173,-0.004187l-0.016422,-0.004186l-0.011731,-0.004186l-0.01173,0l-0.014076,-0.002094l-0.01173,0.002094l-0.01173,0l-0.011731,0.004186l-0.01173,0.004186l-0.009385,0.004187l-0.007038,0.006279l-0.007038,0.002092l-0.004693,0.008373z" fill="#DBDB00" fill-rule="evenodd"/>
    <path stroke="null" id="svg_59" clip-rule="evenodd" d="m13.858133,20.935123l-0.009383,0.010465l-0.002347,0.006221l0,0.010467l0,0.01058l-0.004693,0.010467l0.004693,0.010465l0,0.010465l0.002347,0.010465l0.00469,0.010467l0.004628,0.010465l0.007038,0.010582l0.007039,0.010465l0.009385,0.010465l0.01173,0.008432l0.007038,0.008312l0.016422,0.008432l0.01173,0.010465l0.011797,0.002151l0.014076,0.008315l0.01173,0.004187l0.016423,0.00215l0.011795,0.004186l0.016422,0l0.01173,0l0.011732,0l0.014074,0l0.009449,-0.004186l0.011732,-0.00215l0.011795,-0.004187l0.006972,-0.008315l0.007038,-0.002151l0.009384,-0.010465l0.002347,-0.008432l0.009385,-0.008312l0.002347,-0.008432l0,-0.010465l0.00469,-0.010465l0,-0.010582l-0.00469,-0.010465l0,-0.010467l-0.006975,-0.010465l-0.004691,-0.010465l-0.002345,-0.010465l-0.009385,-0.010467l-0.011795,-0.01058l-0.006974,-0.010467l-0.01173,-0.006221l-0.011794,-0.010465l-0.016423,-0.006338l-0.011732,-0.008313l-0.014077,-0.004187l-0.011794,-0.00622l-0.016423,-0.002151l-0.01173,-0.004187l-0.016424,0l-0.01173,0l-0.01414,0l-0.011732,0l-0.01173,0.004187l-0.011795,0.002151l-0.01173,0.00622l-0.009385,0.004187l-0.007038,0.008313l-0.006973,0.006338z" fill="#F9F980" fill-rule="evenodd"/>
    <path stroke="null" id="svg_60" clip-rule="evenodd" d="m13.888697,20.889017l-0.007039,0.010465l-0.009385,0.010582l-0.002345,0.00622l0,0.0125l-0.004693,0.008432l0,0.012615l0.004693,0.008314l0,0.012618l0.002345,0.008429l0.009385,0.0125l0.002347,0.008432l0.009386,0.012615l0.007038,0.008314l0.011728,0.012617l0.00704,0.006221l0.016422,0.006338l0.011732,0.010465l0.011794,0.006221l0.016423,0.004186l0.014076,0.008432l0.01173,0.002035l0.016423,0.004186l0.011794,0l0.016423,0l0.01173,0l0.011732,0l0.011795,-0.004186l0.01173,-0.002035l0.01173,-0.008432l0.007038,-0.004186l0.006972,-0.006221l0.011795,-0.010465l0.004628,-0.006338l0.004691,-0.006221l0.002347,-0.012617l0,-0.008314l0,-0.012615l0,-0.008432l0,-0.0125l-0.002347,-0.008429l-0.004691,-0.012618l-0.006975,-0.008314l-0.004691,-0.012615l-0.007036,-0.008432l-0.011732,-0.0125l-0.009383,-0.00622l-0.011797,-0.010582l-0.01173,-0.010465l-0.014076,-0.006221l-0.01173,-0.004186l-0.016424,-0.006222l-0.011859,-0.004244l-0.016422,-0.002151l-0.01173,-0.00407l-0.011732,0l-0.01414,-0.004186l-0.011732,0.004186l-0.01173,0l-0.011795,0.00407l-0.011732,0.002151l-0.009383,0.004186l-0.007039,0.006221l-0.007038,0.004187l-0.004562,0.006279l0.000001,0z" fill="#DBDB00" fill-rule="evenodd"/>
    <path stroke="null" id="svg_61" clip-rule="evenodd" d="m4.312079,4.192651l-0.014076,0.018838l-0.009384,0.014651l-0.002346,0.016745l-0.004692,0.016745l-0.004693,0.016745l0.004693,0.018838l0.004692,0.020931l0.002346,0.016745l0.009384,0.020931l0.01173,0.018838l0.01173,0.016745l0.01173,0.016745l0.018769,0.016745l0.016422,0.018838l0.018769,0.016745l0.023459,0.014651l0.018769,0.012558l0.023461,0.014651l0.023461,0.006279l0.023461,0.012558l0.023459,0.002093l0.023462,0.004186l0.023459,0.002093l0.023462,0l0.021114,-0.002093l0.023461,-0.004186l0.018769,-0.002093l0.018768,-0.008372l0.021115,-0.010465l0.014076,-0.010465l0.016423,-0.010465l0.016422,-0.016745l0.007038,-0.014651l0.007038,-0.012558l0.004693,-0.018838l0.004692,-0.016745l0,-0.018838l0,-0.016745l-0.004692,-0.020931l-0.004693,-0.016745l-0.007038,-0.02093l-0.007038,-0.016745l-0.01173,-0.018838l-0.016422,-0.016745l-0.016422,-0.018838l-0.014076,-0.016744l-0.021114,-0.016745l-0.018769,-0.016745l-0.028153,-0.012558l-0.023459,-0.012559l-0.023462,-0.010465l-0.025806,-0.006279l-0.02346,-0.008372l-0.023461,-0.004186l-0.023461,0l-0.023462,-0.002093l-0.021114,0.002093l-0.023461,0.004186l-0.018768,0.004186l-0.018769,0.006279l-0.016422,0.010465l-0.016422,0.010465l-0.011731,0.014651l-0.01173,0.012559l0,-0.000001z" fill="#F9F980" fill-rule="evenodd"/>
    <path stroke="null" id="svg_62" clip-rule="evenodd" d="m4.340232,4.113114l-0.011731,0.016745l-0.007038,0.018838l-0.004691,0.016745l-0.004693,0.018838l0,0.016745l0.004693,0.016745l0.004691,0.016745l0.007038,0.020931l0.007038,0.018838l0.011731,0.020931l0.01173,0.016745l0.01173,0.018838l0.016424,0.016745l0.018768,0.016745l0.021115,0.014651l0.023459,0.014651l0.018769,0.016745l0.023461,0.010465l0.023461,0.010465l0.023461,0.006279l0.023459,0.006279l0.023462,0.008372l0.023459,0l0.023462,0.004186l0.018768,-0.004186l0.023461,0l0.021115,-0.008372l0.018768,-0.006279l0.018769,-0.006279l0.016422,-0.010465l0.016423,-0.010465l0.014076,-0.016745l0.009384,-0.014651l0.007039,-0.018838l0.004691,-0.016745l0.002346,-0.020931l0,-0.016745l0,-0.020931l-0.002346,-0.016745l-0.004691,-0.020931l-0.011731,-0.018838l-0.007038,-0.016745l-0.01173,-0.020931l-0.016424,-0.018838l-0.016421,-0.016745l-0.018769,-0.016745l-0.023461,-0.014651l-0.018769,-0.016745l-0.023461,-0.014651l-0.02346,-0.010465l-0.023461,-0.010465l-0.023461,-0.006279l-0.023461,-0.006279l-0.023461,-0.004186l-0.023461,0l-0.021115,0l-0.023461,0l-0.023461,0.004186l-0.018768,0.006279l-0.018769,0.006279l-0.021114,0.008372l-0.014077,0.008372l-0.016422,0.014651l-0.01173,0.010465l0.000001,0z" fill="#DBDB00" fill-rule="evenodd"/>
    <path stroke="null" id="svg_63" clip-rule="evenodd" d="m5.923822,14.009094l-0.01173,0.018836l-0.007038,0.016803l-0.004691,0.018721l-0.004693,0.016804l0,0.016685l0,0.016803l0.004693,0.018838l0.004691,0.020871l0.007038,0.016804l0.01173,0.020871l0.011731,0.018838l0.016422,0.016686l0.014076,0.016803l0.021115,0.016686l0.018768,0.014652l0.02346,0.014653l0.018769,0.016803l0.023461,0.010465l0.023461,0.010465l0.023461,0.008432l0.023461,0.006221l0.023461,0.002033l0.023461,0l0.023461,0l0.023461,0l0.021115,-0.002033l0.018768,-0.006221l0.018768,-0.008432l0.021115,-0.00622l0.014076,-0.010582l0.016424,-0.014652l0.016422,-0.014651l0.007037,-0.0125l0.007038,-0.016803l0.004693,-0.018838l0.004693,-0.016686l0,-0.018838l0,-0.016686l-0.004693,-0.016804l-0.004693,-0.020871l-0.007038,-0.016803l-0.01173,-0.020873l-0.01173,-0.018836l-0.016424,-0.016688l-0.014076,-0.018838l-0.021115,-0.016803l-0.018768,-0.0125l-0.018768,-0.018838l-0.023461,-0.014652l-0.023462,-0.00843l-0.023459,-0.0125l-0.023462,-0.006336l-0.023459,-0.006221l-0.023462,-0.008432l-0.023461,0l-0.023459,-0.002035l-0.023461,0.002035l-0.021115,0.004186l-0.018768,0.004187l-0.018768,0.006221l-0.021115,0.010465l-0.014077,0.010582l-0.016422,0.014652l-0.01173,0.0125l-0.000001,0z" fill="#F9F980" fill-rule="evenodd"/>
    <path stroke="null" id="svg_64" clip-rule="evenodd" d="m5.963705,13.933801l-0.01173,0.016686l-0.009384,0.014653l-0.002345,0.016803l-0.004693,0.018836l0,0.016688l0,0.016688l0.004693,0.020987l0.002345,0.016688l0.009384,0.02099l0.007038,0.018719l0.011731,0.016804l0.016422,0.018836l0.014076,0.016688l0.016422,0.016803l0.018768,0.016685l0.023462,0.014651l0.023459,0.014652l0.023462,0.012617l0.023459,0.0125l0.023462,0.006338l0.023459,0.00622l0.028153,0.004186l0.023461,0.004186l0.018768,0l0.023461,0l0.021115,-0.004186l0.023461,-0.004186l0.014076,-0.00622l0.021115,-0.006338l0.014076,-0.0125l0.01173,-0.012617l0.016424,-0.014652l0.007038,-0.014651l0.01173,-0.016685l0.004693,-0.016803l0.004691,-0.020873l0,-0.016803l0,-0.020873l-0.004691,-0.018838l-0.004693,-0.020813l-0.007038,-0.016803l-0.01173,-0.020871l-0.011731,-0.018838l-0.016422,-0.016688l-0.014076,-0.016803l-0.016422,-0.016688l-0.018768,-0.018836l-0.021115,-0.016685l-0.023461,-0.010584l-0.023461,-0.01465l-0.023461,-0.006221l-0.023461,-0.010465l-0.023461,-0.004187l-0.023459,-0.002036l-0.023462,-0.004184l-0.023459,0l-0.023462,0.004184l-0.018768,0.002036l-0.018768,0.004187l-0.021115,0.00622l-0.018768,0.010465l-0.016422,0.010582l-0.014076,0.010465l-0.011731,0.014535l0,-0.000001z" fill="#DBDB00" fill-rule="evenodd"/>
    <path stroke="null" id="svg_65" clip-rule="evenodd" d="m1.811178,12.851625l-0.016421,0.018837l-0.007038,0.012617l-0.004693,0.016687l-0.004693,0.018837l-0.002345,0.016803l0.002345,0.018838l0.004693,0.020873l0.004693,0.016686l0.007038,0.020989l0.01173,0.016685l0.01173,0.016803l0.011731,0.018721l0.018768,0.016803l0.016422,0.018837l0.01877,0.016687l0.023461,0.012617l0.021114,0.014651l0.023461,0.014651l0.023461,0.010465l0.023461,0.006222l0.023461,0.00843l0.025807,0.002035l0.023461,0.004187l0.023461,0l0.021115,0l0.023461,-0.004187l0.018768,-0.002035l0.018769,-0.00843l0.021114,-0.006222l0.014076,-0.010465l0.01173,-0.014651l0.016424,-0.014651l0.007038,-0.012617l0.01173,-0.016687l0.004693,-0.018837l0.004691,-0.016803l0,-0.018721l0,-0.020989l-0.004691,-0.016686l-0.004693,-0.020989l-0.007038,-0.020813l-0.01173,-0.016687l-0.011731,-0.020988l-0.016422,-0.016686l-0.014076,-0.018838l-0.016422,-0.016685l-0.018768,-0.018838l-0.021115,-0.016803l-0.023461,-0.010465l-0.023461,-0.010466l-0.023461,-0.010465l-0.023461,-0.006338l-0.023461,-0.00407l-0.025807,-0.004186l-0.023461,-0.002151l-0.023461,0l-0.021114,0l-0.023461,0.002151l-0.018769,0.008314l-0.018768,0.006337l-0.021115,0.00622l-0.014076,0.012617l-0.011731,0.008314l-0.011731,0.014535z" fill="#F9F980" fill-rule="evenodd"/>
    <path stroke="null" id="svg_66" clip-rule="evenodd" d="m1.848716,12.772147l-0.014076,0.016686l-0.009385,0.018838l-0.002346,0.016802l-0.004693,0.016687l-0.004691,0.016803l0.004691,0.020873l0.004693,0.018837l0.002346,0.020873l0.009385,0.016803l0.01173,0.018837l0.01173,0.020873l0.011731,0.016686l0.018768,0.016802l0.016422,0.014653l0.018769,0.016686l0.023461,0.010465l0.018768,0.016803l0.023461,0.0125l0.023461,0.00843l0.023461,0.00843l0.023461,0.006222l0.023461,0.006221l0.023461,0l0.023461,0.004186l0.021115,-0.004186l0.023461,0l0.018768,-0.006221l0.018768,-0.006222l0.021115,-0.00843l0.014076,-0.00843l0.016422,-0.0125l0.016422,-0.016803l0.007038,-0.0125l0.007038,-0.014651l0.004691,-0.018838l0.004693,-0.016803l0,-0.020756l0,-0.016687l-0.004693,-0.020988l-0.004691,-0.016686l-0.011731,-0.020873l-0.007038,-0.018838l-0.01173,-0.020988l-0.016422,-0.016687l-0.014076,-0.018838l-0.021115,-0.012617l-0.023461,-0.016686l-0.018768,-0.014651l-0.023461,-0.010466l-0.023461,-0.014651l-0.023461,-0.010465l-0.023461,-0.006338l-0.023461,-0.00622l-0.023461,-0.004187l-0.018768,-0.004186l-0.023461,0l-0.023461,0l-0.021115,0.004186l-0.018768,0.004187l-0.018769,0.00622l-0.016422,0.006338l-0.016422,0.010465l-0.01173,0.014651l-0.01173,0.010349z" fill="#DBDB00" fill-rule="evenodd"/>
    <path stroke="null" id="svg_67" clip-rule="evenodd" d="m6.451686,20.941402l-0.016422,0.016686l-0.007038,0.018838l-0.004691,0.016803l-0.002347,0.018838l-0.004691,0.016686l0.004691,0.020873l0.002347,0.016803l0.004691,0.020873l0.007038,0.016803l0.011731,0.018838l0.01173,0.020871l0.01173,0.016688l0.021115,0.018838l0.014076,0.012615l0.021115,0.016688l0.023459,0.012615l0.018769,0.016688l0.023461,0.010465l0.02346,0.010582l0.023461,0.00622l0.023461,0.006221l0.023462,0.00843l0.023459,0l0.023462,0.004187l0.018768,-0.004187l0.023462,0l0.021113,-0.00843l0.01877,-0.006221l0.018766,-0.00622l0.016424,-0.010582l0.016423,-0.010465l0.014076,-0.016688l0.009383,-0.014651l0.007039,-0.014652l0.004691,-0.016803l0.002347,-0.020871l0,-0.016688l0,-0.018838l-0.002347,-0.020988l-0.004691,-0.020873l-0.01173,-0.016686l-0.007038,-0.020988l-0.01173,-0.018838l-0.016424,-0.020873l-0.016423,-0.016685l-0.018766,-0.016803l-0.023462,-0.014653l-0.018768,-0.016685l-0.023462,-0.010465l-0.023459,-0.010582l-0.023462,-0.010465l-0.02346,-0.008314l-0.023459,-0.002152l-0.023462,-0.004186l-0.021115,-0.002036l-0.023461,0l-0.023461,0l-0.018768,0.002036l-0.018768,0.004186l-0.021115,0.006222l-0.014076,0.00843l-0.016422,0.00843l-0.011731,0.014653l-0.01173,0.010465z" fill="#F9F980" fill-rule="evenodd"/>
    <path stroke="null" id="svg_68" clip-rule="evenodd" d="m6.479839,20.865993l-0.011731,0.016803l-0.009384,0.012617l-0.002345,0.018721l-0.004693,0.016801l0,0.020873l0,0.018838l0.004693,0.020871l0.007037,0.016803l0.007038,0.020873l0.009386,0.020873l0.01173,0.016803l0.014076,0.016686l0.016422,0.020988l0.018768,0.018838l0.023461,0.014653l0.023461,0.0125l0.021115,0.014651l0.023461,0.010467l0.023462,0.01058l0.02346,0.006222l0.023459,0.004186l0.023462,0.004186l0.023459,0.002036l0.023462,0l0.018768,0l0.023462,-0.002036l0.018766,-0.004186l0.021117,-0.00843l0.018768,-0.006222l0.016421,-0.010465l0.014077,-0.012617l0.016423,-0.01465l0.007036,-0.014652l0.009385,-0.016803l0.002347,-0.016686l0.004691,-0.018838l0,-0.016685l-0.004691,-0.018838l-0.002347,-0.016803l-0.009385,-0.020873l-0.007036,-0.016686l-0.011732,-0.020988l-0.01173,-0.016688l-0.01173,-0.018838l-0.016423,-0.016803l-0.018768,-0.018721l-0.018768,-0.012617l-0.021115,-0.016686l-0.02346,-0.014768l-0.023462,-0.010465l-0.023459,-0.010467l-0.023462,-0.006221l-0.023459,-0.00843l-0.023462,-0.00622l-0.023459,0l-0.018769,-0.004187l-0.023461,0.004187l-0.02346,0l-0.018769,0.00622l-0.021115,0.00843l-0.018768,0.006221l-0.016422,0.010467l-0.014076,0.010465l-0.01173,0.014711z" fill="#DBDB00" fill-rule="evenodd"/>
    <path stroke="null" id="svg_69" clip-rule="evenodd" d="m8.356686,17.942031l-0.009383,0.010465l-0.002347,0.010467l-0.004693,0.006336l-0.004691,0.010467l0,0.010465l0,0.010465l0.004691,0.010465l0.004693,0.010465l0.002347,0.010582l0.009383,0.010467l0.002347,0.010465l0.011728,0.010465l0.009385,0.010465l0.01173,0.010465l0.007038,0.006338l0.016424,0.008314l0.01173,0.010582l0.01173,0.00622l0.014079,0.004186l0.011728,0.00622l0.016423,0.004187l0.011732,0.002036l0.011728,0l0.016423,0l0.011732,0l0.01173,0l0.01173,-0.002036l0.007038,-0.004187l0.01173,-0.00622l0.007038,-0.004186l0.01173,-0.00622l0.009385,-0.010582l0.002345,-0.008314l0.004694,-0.006338l0.004691,-0.010465l0.002347,-0.010465l0,-0.010465l0,-0.010465l-0.002347,-0.010467l-0.004691,-0.010582l-0.004694,-0.010465l-0.007036,-0.010465l-0.004693,-0.010465l-0.01173,-0.010465l-0.007038,-0.010467l-0.01173,-0.006336l-0.007038,-0.010467l-0.01173,-0.010465l-0.016423,-0.006221l-0.01173,-0.004186l-0.016423,-0.008432l-0.01173,-0.002035l-0.014077,-0.004186l-0.01173,-0.002151l-0.01173,0l-0.011732,-0.004187l-0.016421,0.004187l-0.01173,0l-0.011732,0.002151l-0.007038,0.004186l-0.01173,0.002035l-0.009385,0.008432l-0.011728,0.004186l-0.002347,0.006221z" fill="#F9F980" fill-rule="evenodd"/>
    <path stroke="null" id="svg_70" clip-rule="evenodd" d="m8.375455,17.900111l-0.007038,0.010582l-0.004691,0.00622l0,0.010465l0,0.010465l-0.004692,0.010467l0.004692,0.010465l0,0.010582l0.004691,0.010465l0.002347,0.010465l0.004691,0.010465l0.007038,0.010467l0.009385,0.010465l0.007038,0.010582l0.01173,0.008315l0.007038,0.00843l0.016421,0.00843l0.011732,0.010465l0.01173,0.002035l0.016421,0.008432l0.011732,0.004186l0.014074,0.002036l0.011732,0.004186l0.016422,0l0.01173,0l0.011732,0l0.016422,0l0.00704,-0.004186l0.011728,-0.002036l0.011732,-0.004186l0.007039,-0.008432l0.009385,-0.002035l0.007038,-0.010465l0.00469,-0.00843l0.002347,-0.00843l0.004691,-0.008315l0.004693,-0.010582l0,-0.010465l0,-0.010467l-0.004693,-0.010465l-0.004691,-0.010465l-0.002347,-0.010465l-0.009383,-0.010582l-0.002345,-0.010465l-0.011732,-0.010467l-0.009386,-0.010465l-0.01173,-0.010465l-0.007036,-0.00622l-0.011732,-0.010582l-0.01173,-0.006221l-0.011732,-0.00843l-0.016421,-0.004187l-0.01173,-0.00622l-0.011732,-0.002036l-0.014074,-0.004186l-0.011732,0l-0.01173,0l-0.016421,0l-0.01173,0l-0.01173,0.004186l-0.01173,0.002036l-0.011732,0.00622l-0.007038,0.004187l-0.009385,0.00843l-0.007038,0.006221z" fill="#DBDB00" fill-rule="evenodd"/>
    <path stroke="null" id="svg_71" clip-rule="evenodd" d="m6.458724,2.804945l-0.007038,0.010465l-0.007038,0.010465l-0.004691,0.006279l0,0.012559l-0.004693,0.008372l0,0.012558l0.004693,0.008372l0.004691,0.012558l0.002347,0.008372l0.004691,0.012558l0.004693,0.008372l0.007037,0.012558l0.011731,0.008372l0.007038,0.012558l0.011731,0.006279l0.016421,0.006279l0.011731,0.010465l0.011731,0.006279l0.016421,0.004186l0.011731,0.008372l0.014076,0.002094l0.01173,0.004186l0.016422,0l0.01173,0l0.016423,0l0.01173,0l0.011732,-0.004186l0.011728,-0.002094l0.011732,-0.008372l0.007039,-0.004186l0.007038,-0.006279l0.01173,-0.010465l0.004691,-0.006279l0.004691,-0.006279l0,-0.012558l0.002347,-0.008372l0,-0.012558l-0.002347,-0.008372l0,-0.012558l-0.004691,-0.008372l-0.004691,-0.012558l-0.002347,-0.008372l-0.009383,-0.012558l-0.007038,-0.008372l-0.007039,-0.012559l-0.011732,-0.006279l-0.009383,-0.010465l-0.01173,-0.010465l-0.014077,-0.006279l-0.01173,-0.004187l-0.016423,-0.006279l-0.01173,-0.004186l-0.016422,-0.002093l-0.01173,-0.004186l-0.014077,0l-0.01173,-0.004186l-0.01173,0.004186l-0.016424,0l-0.007038,0.004186l-0.01173,0.002093l-0.01173,0.004186l-0.009386,0.006279l-0.007038,0.004187l-0.004691,0.006279z" fill="#F9F980" fill-rule="evenodd"/>
    <path stroke="null" id="svg_72" clip-rule="evenodd" d="m6.479839,2.763083l-0.009386,0.010465l-0.002345,0.008372l-0.004693,0.008372l-0.004691,0.012558l0,0.008372l0,0.012558l0.004691,0.008372l0.004693,0.012559l0.002345,0.008372l0.004693,0.012558l0.007038,0.008372l0.009384,0.012558l0.007038,0.008372l0.007038,0.008372l0.01173,0.010465l0.01173,0.006279l0.01173,0.010465l0.011731,0.004186l0.016422,0.006279l0.011731,0.004186l0.016422,0.004187l0.01173,0.002093l0.014076,0l0.011731,0l0.016422,0l0.01173,0l0.01173,-0.002093l0.011732,-0.004187l0.01173,-0.004186l0.007038,-0.006279l0.009384,-0.004186l0.011732,-0.010465l0.002347,-0.006279l0.004691,-0.010465l0,-0.008372l0.004691,-0.008372l0,-0.012558l-0.004691,-0.008372l0,-0.012558l-0.004691,-0.008372l-0.002347,-0.012559l-0.004691,-0.008372l-0.00704,-0.012558l-0.009384,-0.008372l-0.007038,-0.012558l-0.01173,-0.008372l-0.007038,-0.008372l-0.011732,-0.010465l-0.016421,-0.006279l-0.011731,-0.008372l-0.016422,-0.002093l-0.01173,-0.006279l-0.014076,-0.004186l-0.01173,-0.004186l-0.016422,0l-0.01173,0l-0.011731,0l-0.016422,0l-0.007039,0.004186l-0.01173,0.004186l-0.01173,0.006279l-0.007038,0.002093l-0.009384,0.008372l-0.002345,0.006279z" fill="#DBDB00" fill-rule="evenodd"/>
   </g>
  </g>
 </g>
</svg>