<?xml version="1.0" encoding="utf-8"?>
<!-- Generator: Adobe Illustrator 21.0.0, SVG Export Plug-In . SVG Version: 6.00 Build 0)  -->
<svg version="1.1" id="sign" xmlns="http://www.w3.org/2000/svg" xmlns:xlink="http://www.w3.org/1999/xlink" x="0px" y="0px"
	 viewBox="0 0 24 24" style="enable-background:new 0 0 24 24;" xml:space="preserve">
<style type="text/css">
	.st0{fill:#E64A19;}
</style>
<g>
	<path class="st0" d="M11,3l1-1l1,1v2h7c0.6,0,1,0.4,1,1v10c0,0.6-0.4,1-1,1h-7v3c1.1,0,2,0.9,2,2H9c0-1.1,0.9-2,2-2v-3H4
		c-0.6,0-1-0.4-1-1V6c0-0.6,0.4-1,1-1h7V3 M6,8v2h12V8H6 M6,12v2h7v-2H6z"/>
</g>
</svg>
