<svg width="24.000000000000004" height="24.000000000000004" xmlns="http://www.w3.org/2000/svg">
 <!-- Created with Method Draw - http://github.com/duopixel/Method-Draw/ -->

 <g>
  <title>background</title>
  <rect fill="none" id="canvas_background" height="26" width="26" y="-1" x="-1"/>
  <g display="none" overflow="visible" y="0" x="0" height="100%" width="100%" id="canvasGrid">
   <rect fill="url(#gridpattern)" stroke-width="0" y="0" x="0" height="100%" width="100%"/>
  </g>
 </g>
 <g>
  <title>Layer 1</title>
  <metadata transform="matrix(0.013087359858169556,0,0,0.013087359858169556,0,0) ">Svg Vector Icons : http://www.onlinewebfonts.com/icon</metadata>
  <g stroke="null" id="svg_12">
   <g stroke="null" transform="matrix(0.02297425460361258,0,0,0.024076483201804298,-8.540969268895493,-9.726444938143462) " id="svg_5">
    <g stroke="null" id="svg_6" transform="translate(0,511) scale(0.10000000149011612,-0.10000000149011612) ">
     <path stroke="null" fill="#e64a19" id="svg_7" d="m8320.386833,970.525154c-544.1,-30.6 -988.5,-71.5 -1392.1,-127.7c-260.5,-35.8 -630.9,-71.5 -822.5,-76.6l-352.5,-12.8l0,-380.6l0,-380.6l3215.8,0l3215.8,0l-23,97.1c-12.8,51.1 -23,224.8 -23,383.1l0,286.1l-347.4,0c-227.3,0 -452.1,17.9 -646.2,51.1c-840.2,140.5 -2027.9,209.5 -2824.9,160.9z"/>
     <path stroke="null" fill="#e64a19" id="svg_8" d="m5617.986833,-651.374846c-398.5,-2104.7 -424,-4071.5 -79.2,-6048.5c35.8,-204.3 76.6,-424 92,-490.4l25.5,-122.6l3289.9,0c3113.7,0 3292.5,2.5 3305.2,46c66.4,214.6 235,1486.6 301.4,2265.6c40.9,485.3 40.9,2058.8 0,2516c-66.4,751 -232.5,1938.7 -298.9,2148.2c-15.3,46 -125.2,48.5 -3292.5,48.5l-3274.4,0l-69,-362.8zm1141.8,-2620.7c102.2,-58.8 166,-153.2 186.5,-268.2l15.3,-94.5l-125.2,0c-114.9,0 -127.7,7.7 -163.5,84.3c-35.8,74.1 -48.5,81.7 -171.1,89.4c-109.8,5.1 -137.9,0 -168.6,-46c-56.2,-81.7 -25.5,-145.6 94.5,-189c56.2,-23 168.6,-63.9 247.8,-92c76.6,-28.1 173.7,-86.8 214.6,-127.7c63.9,-69 76.6,-102.2 84.3,-250.3c7.7,-189 -35.8,-296.3 -160.9,-378c-150.7,-99.6 -457.2,-94.5 -597.7,7.7c-132.8,99.6 -242.7,390.8 -145.6,390.8c17.9,0 69,7.7 112.4,15.3c69,15.3 79.2,7.7 94.5,-63.9c38.3,-173.7 283.5,-245.2 408.7,-117.5c125,122.6 61.2,217.1 -191.7,293.7c-214.6,63.9 -332.1,140.5 -388.3,255.4c-112.4,219.7 12.8,475.1 263.1,536.4c115,28.2 298.9,7.7 390.9,-45.9zm2311.6,43.4c61.3,-12.8 145.6,-48.5 189,-79.2c81.7,-58.8 189,-268.2 153.3,-304c-10.2,-10.2 -69,-28.1 -127.7,-38.3c-89.4,-12.8 -109.8,-10.2 -109.8,23c0,66.4 -148.1,171.1 -245.2,171.1c-196.7,0 -309.1,-125.2 -334.6,-370.4c-20.4,-204.3 30.7,-378 140.5,-475.1c79.2,-71.5 104.7,-79.2 206.9,-69c171.1,17.9 258,81.7 258,189l0,86.9l-140.5,0l-140.5,0l0,115l0,114.9l268.1,0l268.2,0l0,-263.1c0,-242.7 -5.1,-268.2 -58.8,-319.3c-166,-155.8 -526.2,-212 -725.4,-112.4c-127.7,66.4 -196.7,143 -268.2,298.8c-81.7,178.8 -81.7,533.8 0,705c81.7,163.5 209.5,278.4 355.1,319.3c150.7,41 171.1,41 311.6,7.8zm-1632.2,-528.7c12.8,-508.3 15.3,-521.1 74.1,-569.6c84.3,-68.9 235,-63.9 304,10.2c53.6,58.7 58.8,84.3 63.9,569.6l5.1,508.3l122.6,7.6l122.6,7.7l-7.7,-556.8c-7.7,-623.2 -20.4,-671.8 -186.5,-773.9c-69,-43.4 -130.3,-56.2 -265.6,-56.2c-260.5,0 -403.6,94.5 -459.8,298.8c-15.3,56.2 -28.1,319.3 -28.1,595.1l0,493l122.6,-7.7l120.1,-7.6l12.7,-518.5zm2845.5,449.5c43.4,-102.2 449.6,-1269.5 449.6,-1287.4c0,-7.7 -58.7,-10.2 -132.8,-5.1l-130.3,7.7l-51.1,148.1l-48.5,145.6l-237.5,0l-240.1,0l-46,-145.6l-46,-148.1l-120.1,-7.7c-91.9,-5.1 -122.6,0 -122.6,28.1c0,35.8 421.5,1279.7 449.5,1323.1c7.7,12.8 63.9,23 127.7,23c104.7,0 117.5,-7.6 148.2,-81.7zm1387,15.3c227.3,-166 209.5,-539 -33.2,-664.1l-102.2,-51.1l56.2,-43.4c58.8,-43.4 316.7,-472.5 316.7,-526.2c0,-20.4 -43.4,-28.1 -132.8,-23l-135.4,7.7l-145.6,242.7c-176.2,288.6 -189,301.4 -301.4,311.6l-89.4,7.7l-7.7,-286.1l-7.7,-288.6l-112.3,0l-115,0l0,692.2l0,692.2l367.8,-10.2c324.4,-7.7 378.1,-15.4 442,-61.4z"/>
     <path stroke="null" fill="#e64a19" id="svg_9" d="m10059.886833,-3790.574846c-35.7,-120 -66.4,-224.8 -66.4,-235c0,-10.2 63.9,-17.9 140.5,-17.9s140.5,10.2 140.5,20.4c0,10.2 -33.2,117.5 -74.1,235l-71.6,217.1l-68.9,-219.6z"/>
     <path stroke="null" fill="#e64a19" id="svg_10" d="m11096.886833,-3639.974846l7.7,-160.9l201.8,2.6c222.2,0 270.7,30.6 270.7,166c0,120 -56.2,150.7 -283.5,150.7l-204.3,0l7.6,-158.4z"/>
     <path stroke="null" fill="#e64a19" id="svg_11" d="m5737.986833,-7650.174846c7.7,-33.2 15.3,-204.3 15.3,-383.1l0,-326.9l314.2,0c283.5,0 344.8,-7.7 671.8,-99.6c1726.7,-477.6 2955.3,-472.5 4498.1,17.9c278.4,86.9 324.4,94.5 597.7,92l298.8,0l10.2,334.6c7.7,181.3 23,352.5 33.2,378c17.9,40.9 -145.6,43.4 -3218.4,43.4l-3236.2,0l15.3,-56.3z"/>
    </g>
   </g>
  </g>
 </g>
</svg>
