<svg id="Lemonade" xmlns="http://www.w3.org/2000/svg" viewBox="0 0 125.9471 127.61713"><defs><style>.cls-1{fill:#ffe424}.cls-2{fill:#fff543}.cls-3{opacity:.58}.cls-14,.cls-22,.cls-4,.cls-8{fill:#fff}.cls-5{opacity:.05}.cls-6{fill:#2a6e8c}.cls-7{fill:#0b3144}.cls-13,.cls-20,.cls-7,.cls-8{opacity:.2}.cls-9{fill:#aeffff;opacity:.78}.cls-10{fill:#e8b06a;opacity:.5}.cls-11{fill:#e9f4e9}.cls-11,.cls-15,.cls-16,.cls-17{opacity:.91}.cls-12{fill:#ff551d}.cls-13{fill:#18407a}.cls-14{opacity:.07}.cls-15{fill:#e8efe8}.cls-16{fill:#f3fff3}.cls-17{fill:#e3e8e3}.cls-18{fill:#efff00;opacity:.53}.cls-19{fill:#66b3e3;opacity:.04}.cls-20{fill:#2d6566}.cls-21{fill:#267391;opacity:.09}.cls-22{opacity:.15}</style></defs><title>lemonadeResponsive</title><circle class="cls-1" cx="96.695" cy="29.252" r="29.252"/><circle class="cls-2" cx="96.695" cy="29.252" r="23.353"/><g class="cls-3"><path class="cls-4" d="M101.611 11.066l-3.033 14.542 16.321-.669-15.562 3.402 10.193 15.042-12.917-12.609-5.741 17.181 2.107-17.805-15.396 3.933 15.187-7.182-9.817-11.262 12.473 8.517 6.185-13.09z"/></g><g class="cls-5"><path class="cls-6" d="M150.602 41.092L108.76 82.934a29.587 29.587 0 1 0 41.842-41.842z" transform="translate(-33.386 -32.988)"/></g><path class="cls-7" d="M130 91.331a29.331 29.331 0 0 1-29.33-29.165l-.001.166a29.332 29.332 0 1 0 58.664 0l-.002-.166a29.331 29.331 0 0 1-29.33 29.165z" transform="translate(-33.386 -32.988)"/><path class="cls-8" d="M130 33.333A29.331 29.331 0 0 1 159.332 62.5l.002-.167a29.332 29.332 0 1 0-58.664 0l.002.167A29.331 29.331 0 0 1 130 33.333z" transform="translate(-33.386 -32.988)"/><path class="cls-9" d="M130.748 56.08H62.395a3.503 3.503 0 0 0-3.49 3.8l8.282 97.518a3.503 3.503 0 0 0 3.491 3.207h51.787a3.503 3.503 0 0 0 3.49-3.207l8.284-97.519a3.503 3.503 0 0 0-3.491-3.8z" transform="translate(-33.386 -32.988)"/><path class="cls-10" d="M94.818 52.183H31.552l6.182 71.102h50.902l6.182-71.102z"/><rect class="cls-11" x="69.073" y="82.272" width="27.129" height="26.29" rx="4.991" ry="4.991" transform="rotate(15.748 185.21 -41.78)"/><rect class="cls-11" x="95.52" y="107.91" width="25.015" height="23.756" rx="4.583" ry="4.583" transform="rotate(21.281 179.127 14.44)"/><path class="cls-12" d="M99.26 150.258c-1.318-3.924-32.011-95.365-33.41-99.787-1.645-4.777-5.362-7.087-9.555-5.964-1.872 1.039-10.136 6.34-17.43 11.117l-5.479-8.366C50.845 35.825 52.2 35.335 52.777 35.126l.22-.073c9.526-2.952 18.921 2.2 22.338 12.252l.049.15c.686 2.245 22.119 66.146 33.356 99.621z" transform="translate(-33.386 -32.988)"/><path class="cls-13" d="M99.26 149.258c-1.318-3.924-32.011-95.365-33.41-99.787-1.645-4.777-5.362-7.087-9.555-5.964-1.872 1.039-10.136 6.34-17.43 11.117l-5.02-7.666-.459.3 5.479 8.366c7.294-4.777 15.558-10.078 17.43-11.117 4.193-1.123 7.91 1.187 9.555 5.964 1.399 4.422 32.092 95.863 33.41 99.787l9.48-3.182-.301-.899z" transform="translate(-33.386 -32.988)"/><path class="cls-14" d="M52.777 36.126l.22-.073c9.526-2.952 18.921 2.2 22.338 12.252l.049.15c.68 2.225 21.74 65.017 33.055 98.723l.301-.102C97.503 113.601 76.07 49.7 75.384 47.454l-.049-.15c-3.417-10.052-12.812-15.203-22.339-12.251l-.219.073c-.578.21-1.932.699-19.39 12.132l.458.7C50.86 36.822 52.204 36.334 52.777 36.126z" transform="translate(-33.386 -32.988)"/><rect class="cls-15" x="101.637" y="86.668" width="22.941" height="21.787" rx="4.583" ry="4.583" transform="rotate(-16.795 -15.32 194.15)"/><rect class="cls-16" x="84.298" y="81.546" width="25.967" height="23.644" rx="4.583" ry="4.583" transform="rotate(9.03 289.475 -134.533)"/><rect class="cls-17" x="72.783" y="106.188" width="23.401" height="23.401" rx="4.583" ry="4.583" transform="rotate(30 129.348 39.095)"/><path class="cls-18" d="M94.818 52.183H31.552l6.182 71.102h50.902l6.182-71.102z"/><path class="cls-19" d="M130.748 56.08H62.395a3.503 3.503 0 0 0-3.49 3.8l8.282 97.518a3.503 3.503 0 0 0 3.491 3.207h51.787a3.503 3.503 0 0 0 3.49-3.207l8.284-97.519a3.503 3.503 0 0 0-3.491-3.8z" transform="translate(-33.386 -32.988)"/><path id="Shadow" class="cls-20" d="M125.956 156.399a3.503 3.503 0 0 1-3.491 3.206H70.678a3.503 3.503 0 0 1-3.49-3.206l-8.264-97.286a3.515 3.515 0 0 0-.02.766l8.283 97.52a3.503 3.503 0 0 0 3.491 3.206h51.787a3.503 3.503 0 0 0 3.49-3.206l8.284-97.52a3.515 3.515 0 0 0-.02-.766z" transform="translate(-33.386 -32.988)"/><path class="cls-21" d="M130.748 56.08H96.57v104.525h25.894a3.503 3.503 0 0 0 3.49-3.207l8.284-97.519a3.503 3.503 0 0 0-3.491-3.8z" transform="translate(-33.386 -32.988)"/><path class="cls-22" d="M62.395 57.08h68.353a3.504 3.504 0 0 1 3.47 3.033l.02-.234a3.503 3.503 0 0 0-3.49-3.8H62.395a3.503 3.503 0 0 0-3.49 3.8l.019.234a3.504 3.504 0 0 1 3.471-3.034z" transform="translate(-33.386 -32.988)"/></svg>