<svg xmlns="http://www.w3.org/2000/svg" xmlns:xlink="http://www.w3.org/1999/xlink" width="175.9998" height="175.9998" viewBox="0 0 175.9998 175.9998">
  <defs>
    <style>
      .cls-1 {
        fill: #35b9eb;
      }

      .cls-15, .cls-2, .cls-23, .cls-7 {
        fill: #fff;
      }

      .cls-14, .cls-2, .cls-21, .cls-3 {
        opacity: 0.2;
      }

      .cls-3 {
        fill: #0b3144;
      }

      .cls-4 {
        fill: #fff543;
      }

      .cls-5 {
        fill: #ffe424;
      }

      .cls-6 {
        opacity: 0.58;
      }

      .cls-8 {
        opacity: 0.05;
      }

      .cls-9 {
        fill: #2a6e8c;
      }

      .cls-10 {
        fill: #aeffff;
        opacity: 0.78;
      }

      .cls-11 {
        fill: #e8b06a;
        opacity: 0.5;
      }

      .cls-12 {
        fill: #e9f4e9;
      }

      .cls-12, .cls-16, .cls-17, .cls-18 {
        opacity: 0.91;
      }

      .cls-13 {
        fill: #ff551d;
      }

      .cls-14 {
        fill: #18407a;
      }

      .cls-15 {
        opacity: 0.07;
      }

      .cls-16 {
        fill: #e8efe8;
      }

      .cls-17 {
        fill: #f3fff3;
      }

      .cls-18 {
        fill: #e3e8e3;
      }

      .cls-19 {
        fill: #efff00;
        opacity: 0.53;
      }

      .cls-20 {
        fill: #66b3e3;
        opacity: 0.04;
      }

      .cls-21 {
        fill: #2d6566;
      }

      .cls-22 {
        fill: #267391;
        opacity: 0.09;
      }

      .cls-23 {
        opacity: 0.15;
      }

      .cls-24 {
        fill: url(#New_Gradient_Swatch);
      }
    </style>
    <linearGradient id="New_Gradient_Swatch" data-name="New Gradient Swatch" x1="25.77457" y1="25.77457" x2="150.22523" y2="150.22523" gradientUnits="userSpaceOnUse">
      <stop offset="0" stop-color="#fff" stop-opacity="0.1"/>
      <stop offset="0.13876" stop-color="#fff" stop-opacity="0.07734"/>
      <stop offset="0.60877" stop-color="#fff" stop-opacity="0.01991"/>
      <stop offset="1" stop-color="#fff" stop-opacity="0"/>
    </linearGradient>
  </defs>
  <title>lemonadeCircleNoShade</title>
  <g id="Background">
    <circle class="cls-1" cx="87.9999" cy="87.9999" r="87.9999"/>
    <path class="cls-2" d="M96,8.00012A87.99662,87.99662,0,0,1,183.99353,95.5c.00092-.16693.00635-.33282.00635-.5A87.99988,87.99988,0,1,0,8.00012,95c0,.16718.00543.33307.00635.5A87.99662,87.99662,0,0,1,96,8.00012Z" transform="translate(-8.0001 -7.0001)"/>
    <path class="cls-3" d="M96,181.99988A87.99662,87.99662,0,0,1,8.00647,94.5c-.00092.16693-.00635.33282-.00635.5a87.99988,87.99988,0,0,0,175.99976,0c0-.16718-.00543-.33307-.00635-.5A87.99662,87.99662,0,0,1,96,181.99988Z" transform="translate(-8.0001 -7.0001)"/>
  </g>
  <g id="Lemonade">
    <g>
      <circle class="cls-4" cx="122.08085" cy="55.24057" r="23.35323"/>
      <path class="cls-5" d="M130.08095,38.88744a23.35323,23.35323,0,1,1-23.35323,23.35323,23.35323,23.35323,0,0,1,23.35323-23.35323m0-6a29.35323,29.35323,0,1,0,29.35323,29.35323,29.38648,29.38648,0,0,0-29.35323-29.35323Z" transform="translate(-8.0001 -7.0001)"/>
    </g>
    <g class="cls-6">
      <polygon class="cls-7" points="126.997 37.055 123.964 51.596 140.285 50.927 124.723 54.329 134.916 69.371 121.999 56.763 116.258 73.943 118.365 56.138 102.97 60.071 118.156 52.889 108.339 41.627 120.813 50.144 126.997 37.055"/>
    </g>
    <g class="cls-8">
      <path class="cls-9" d="M150.60248,41.09184,108.76039,82.93393a29.587,29.587,0,1,0,41.84209-41.84209Z" transform="translate(-8.0001 -7.0001)"/>
    </g>
    <path class="cls-3" d="M130.00094,91.33146a29.33131,29.33131,0,0,1-29.33028-29.16573c-.00031.05564-.00212.11094-.00212.16666a29.33239,29.33239,0,1,0,58.66478,0c0-.05572-.00181-.111-.00212-.16666A29.33131,29.33131,0,0,1,130.00094,91.33146Z" transform="translate(-8.0001 -7.0001)"/>
    <path class="cls-2" d="M130.00094,33.33332a29.33131,29.33131,0,0,1,29.33028,29.16573c.00031-.05564.00212-.11094.00212-.16666a29.33239,29.33239,0,1,0-58.66478,0c0,.05572.00181.111.00212.16666A29.33131,29.33131,0,0,1,130.00094,33.33332Z" transform="translate(-8.0001 -7.0001)"/>
    <path class="cls-10" d="M130.74774,56.07937H62.395A3.50343,3.50343,0,0,0,58.9041,59.8793l8.283,97.51918a3.50343,3.50343,0,0,0,3.49086,3.20692h51.78687a3.50343,3.50343,0,0,0,3.49086-3.20692l8.283-97.51918A3.50343,3.50343,0,0,0,130.74774,56.07937Z" transform="translate(-8.0001 -7.0001)"/>
    <polygon class="cls-11" points="120.205 78.172 56.938 78.172 63.12 149.273 114.022 149.273 120.205 78.172"/>
    <rect class="cls-12" x="69.07319" y="82.27176" width="27.1286" height="26.29021" rx="4.99124" ry="4.99124" transform="translate(20.99837 -25.84692) rotate(15.74793)"/>
    <rect class="cls-12" x="95.52033" y="107.91024" width="25.01526" height="23.75643" rx="4.5835" ry="4.5835" transform="matrix(0.93181, 0.36294, -0.36294, 0.93181, 42.84169, -38.03955)"/>
    <path class="cls-13" d="M99.25977,150.25781C97.94238,146.334,67.24854,54.89307,65.84961,50.47119c-1.645-4.77686-5.36182-7.0874-9.5542-5.96436-1.87256,1.03906-10.13623,6.33984-17.43066,11.1167L33.38623,47.2583C50.84473,35.82471,52.19873,35.33545,52.77734,35.126l.21875-.07324c9.52686-2.95215,18.92188,2.19971,22.33936,12.252l.04834.14941c.68652,2.24561,22.11914,66.14648,33.35645,99.62207Z" transform="translate(-8.0001 -7.0001)"/>
    <path class="cls-14" d="M99.25977,149.25781C97.94238,145.334,67.24854,53.89307,65.84961,49.47119c-1.645-4.77686-5.36182-7.0874-9.5542-5.96436-1.87256,1.03906-10.13623,6.33984-17.43066,11.1167l-5.02-7.66516c-.15472.10126-.30121.1969-.4585.29993l5.47852,8.36523c7.29443-4.77686,15.55811-10.07764,17.43066-11.1167,4.19238-1.123,7.90918,1.1875,9.5542,5.96436,1.39893,4.42188,32.09277,95.86279,33.41016,99.78662l9.48047-3.18164c-.09918-.29547-.20093-.59863-.3017-.89874Z" transform="translate(-8.0001 -7.0001)"/>
    <path class="cls-15" d="M52.77734,36.126l.21875-.07324c9.52686-2.95215,18.92188,2.19971,22.33936,12.252l.04834.14941c.68048,2.22577,21.74066,65.01794,33.05475,98.72333l.3017-.10126C97.50293,113.60059,76.07031,49.69971,75.38379,47.4541l-.04834-.14941c-3.41748-10.05225-12.8125-15.2041-22.33936-12.252l-.21875.07324c-.57861.20947-1.93262.69873-19.39111,12.13232l.4585.70007C50.85956,36.82239,52.20392,36.33356,52.77734,36.126Z" transform="translate(-8.0001 -7.0001)"/>
    <rect class="cls-16" x="101.63709" y="86.66835" width="22.9414" height="21.78693" rx="4.5835" ry="4.5835" transform="translate(-31.36535 29.84277) rotate(-16.7946)"/>
    <rect class="cls-17" x="84.2982" y="81.54597" width="25.96708" height="23.64391" rx="4.5835" ry="4.5835" transform="translate(7.85919 -21.11097) rotate(9.02966)"/>
    <rect class="cls-18" x="72.78349" y="106.18773" width="23.40123" height="23.40123" rx="4.5835" ry="4.5835" transform="translate(62.26279 -33.44811) rotate(30)"/>
    <polygon class="cls-19" points="120.205 78.172 56.938 78.172 63.12 149.273 114.022 149.273 120.205 78.172"/>
    <path class="cls-20" d="M130.74774,56.07937H62.395A3.50343,3.50343,0,0,0,58.9041,59.8793l8.283,97.51918a3.50343,3.50343,0,0,0,3.49086,3.20692h51.78687a3.50343,3.50343,0,0,0,3.49086-3.20692l8.283-97.51918A3.50343,3.50343,0,0,0,130.74774,56.07937Z" transform="translate(-8.0001 -7.0001)"/>
    <path id="Shadow" class="cls-21" d="M125.95563,156.3985a3.50338,3.50338,0,0,1-3.49084,3.20691H70.67792a3.50338,3.50338,0,0,1-3.49084-3.20691L58.924,59.11285a3.51458,3.51458,0,0,0-.01984.76642l8.283,97.51923a3.50338,3.50338,0,0,0,3.49084,3.20691h51.78687a3.50338,3.50338,0,0,0,3.49084-3.20691l8.283-97.51923a3.51458,3.51458,0,0,0-.01984-.76642Z" transform="translate(-8.0001 -7.0001)"/>
    <path class="cls-22" d="M130.74773,56.07937H96.57135v104.526h25.89343a3.50343,3.50343,0,0,0,3.49087-3.20694L134.2386,59.8793A3.50342,3.50342,0,0,0,130.74773,56.07937Z" transform="translate(-8.0001 -7.0001)"/>
    <path class="cls-23" d="M62.395,57.07935h68.35278a3.50382,3.50382,0,0,1,3.471,3.03351l.01984-.23358a3.50341,3.50341,0,0,0-3.49084-3.79993H62.395a3.50341,3.50341,0,0,0-3.49084,3.79993l.01984.23358A3.50382,3.50382,0,0,1,62.395,57.07935Z" transform="translate(-8.0001 -7.0001)"/>
  </g>
  <g id="Radial_Gradient" data-name="Radial Gradient">
    <circle class="cls-24" cx="87.9999" cy="87.9999" r="87.9999"/>
  </g>
</svg>
